<svg width="137" height="120" viewBox="0 0 137 120" fill="none" xmlns="http://www.w3.org/2000/svg">
<defs>
<radialGradient id="paint0_radial_5593_7724" cx="0" cy="0" r="1" gradientUnits="userSpaceOnUse" gradientTransform="translate(68.7083 67.2528) rotate(90) scale(31.6484)">
<stop stop-color="#EF2641"/>
<stop offset="1" stop-color="#F9E9EB"/>
</radialGradient>
<clipPath id="clip0_5593_7724">
<rect width="135.84" height="120" fill="white" transform="translate(0.579956)"/>
</clipPath>
</defs>
<g clip-path="url(#clip0_5593_7724)">
<path d="M100.357 67.2528C100.357 84.7317 86.1872 98.9012 68.7083 98.9012C51.2294 98.9012 37.0599 84.7317 37.0599 67.2528C37.0599 49.7739 51.2294 35.6045 68.7083 35.6045C86.1872 35.6045 100.357 49.7739 100.357 67.2528Z" fill="url(#paint0_radial_5593_7724)"/>
<path d="M94.1187 67.2528C94.1187 81.2359 82.7832 92.5715 68.8001 92.5715C54.8169 92.5715 43.4814 81.2359 43.4814 67.2528C43.4814 53.2697 54.8169 41.9341 68.8001 41.9341C82.7832 41.9341 94.1187 53.2697 94.1187 67.2528Z" fill="#E12424"/>
<path fill-rule="evenodd" clip-rule="evenodd" d="M61.267 59.6025C62.0168 58.8527 63.2325 58.8527 63.9823 59.6025L68.8023 64.4225L73.4974 59.7274C74.2472 58.9776 75.4628 58.9776 76.2127 59.7274C76.9625 60.4772 76.9625 61.6929 76.2127 62.4427L71.5176 67.1378L76.3374 71.9575C77.0872 72.7074 77.0872 73.923 76.3374 74.6728C75.5876 75.4226 74.3719 75.4226 73.6221 74.6728L68.8023 69.853L63.8576 74.7978C63.1078 75.5476 61.8921 75.5476 61.1423 74.7978C60.3925 74.048 60.3925 72.8323 61.1423 72.0825L66.087 67.1378L61.267 62.3178C60.5172 61.568 60.5172 60.3523 61.267 59.6025Z" fill="white"/>
<path d="M71.797 2.1978C71.797 3.41161 70.8129 4.3956 69.599 4.3956C68.385 4.3956 67.4009 3.41161 67.4009 2.1978C67.4009 0.98399 68.385 0 69.599 0C70.8129 0 71.797 0.98399 71.797 2.1978Z" fill="#EC3D3D"/>
<path d="M7.61374 54.5055C7.61374 56.4476 6.03918 58.022 4.09685 58.022C2.15452 58.022 0.579956 56.4476 0.579956 54.5055C0.579956 52.5634 2.15452 50.989 4.09685 50.989C6.03918 50.989 7.61374 52.5634 7.61374 54.5055Z" fill="#FFC0C0"/>
<path d="M136.42 113.407C136.42 115.349 134.845 116.923 132.903 116.923C130.961 116.923 129.386 115.349 129.386 113.407C129.386 111.464 130.961 109.89 132.903 109.89C134.845 109.89 136.42 111.464 136.42 113.407Z" fill="#EC3D3D"/>
<path d="M75.3139 20.8791C75.3139 21.9716 74.4282 22.8571 73.3357 22.8571C72.2431 22.8571 71.3574 21.9716 71.3574 20.8791C71.3574 19.7867 72.2431 18.9011 73.3357 18.9011C74.4282 18.9011 75.3139 19.7867 75.3139 20.8791Z" fill="#FFC0C0"/>
<path d="M22.5605 30.989C22.5605 32.0814 21.6748 32.967 20.5823 32.967C19.4897 32.967 18.604 32.0814 18.604 30.989C18.604 29.8966 19.4897 29.011 20.5823 29.011C21.6748 29.011 22.5605 29.8966 22.5605 30.989Z" fill="#EC3D3D"/>
<path d="M12.4495 118.022C12.4495 119.114 11.5638 120 10.4712 120C9.37866 120 8.49297 119.114 8.49297 118.022C8.49297 116.93 9.37866 116.044 10.4712 116.044C11.5638 116.044 12.4495 116.93 12.4495 118.022Z" fill="#EC3D3D"/>
<path d="M122.352 102.637C122.352 103.73 121.467 104.615 120.374 104.615C119.282 104.615 118.396 103.73 118.396 102.637C118.396 101.545 119.282 100.659 120.374 100.659C121.467 100.659 122.352 101.545 122.352 102.637Z" fill="#EC3D3D"/>
<path d="M107.406 42.6374C107.406 43.1229 107.012 43.5165 106.526 43.5165C106.041 43.5165 105.647 43.1229 105.647 42.6374C105.647 42.1518 106.041 41.7582 106.526 41.7582C107.012 41.7582 107.406 42.1518 107.406 42.6374Z" fill="#FFC0C0"/>
<path d="M129.386 55.3846C129.386 55.8701 128.993 56.2637 128.507 56.2637C128.021 56.2637 127.628 55.8701 127.628 55.3846C127.628 54.8991 128.021 54.5055 128.507 54.5055C128.993 54.5055 129.386 54.8991 129.386 55.3846Z" fill="#EC3D3D"/>
<path d="M83.2269 29.8901C83.2269 30.3756 82.8333 30.7692 82.3477 30.7692C81.8621 30.7692 81.4685 30.3756 81.4685 29.8901C81.4685 29.4046 81.8621 29.011 82.3477 29.011C82.8333 29.011 83.2269 29.4046 83.2269 29.8901Z" fill="#EC3D3D"/>
<path d="M114.879 32.0879C114.879 32.8162 114.289 33.4066 113.56 33.4066C112.832 33.4066 112.241 32.8162 112.241 32.0879C112.241 31.3596 112.832 30.7692 113.56 30.7692C114.289 30.7692 114.879 31.3596 114.879 32.0879Z" fill="#EC3D3D"/>
<path d="M119.715 18.9011C119.715 19.6294 119.124 20.2198 118.396 20.2198C117.668 20.2198 117.077 19.6294 117.077 18.9011C117.077 18.1728 117.668 17.5824 118.396 17.5824C119.124 17.5824 119.715 18.1728 119.715 18.9011Z" fill="#EC3D3D"/>
<path d="M136.42 34.7253C136.42 35.4536 135.829 36.044 135.101 36.044C134.373 36.044 133.782 35.4536 133.782 34.7253C133.782 33.997 134.373 33.4066 135.101 33.4066C135.829 33.4066 136.42 33.997 136.42 34.7253Z" fill="#EC3D3D"/>
<path d="M12.8891 69.4505C12.8891 70.1788 12.2986 70.7692 11.5702 70.7692C10.8419 70.7692 10.2514 70.1788 10.2514 69.4505C10.2514 68.7223 10.8419 68.1319 11.5702 68.1319C12.2986 68.1319 12.8891 68.7223 12.8891 69.4505Z" fill="#EC3D3D"/>
<path d="M30.0339 97.1429C30.0339 97.8711 29.4435 98.4615 28.7151 98.4615C27.9867 98.4615 27.3963 97.8711 27.3963 97.1429C27.3963 96.4146 27.9867 95.8242 28.7151 95.8242C29.4435 95.8242 30.0339 96.4146 30.0339 97.1429Z" fill="#EC3D3D"/>
<path d="M111.802 94.9451C111.802 95.6733 111.211 96.2637 110.483 96.2637C109.754 96.2637 109.164 95.6733 109.164 94.9451C109.164 94.2168 109.754 93.6264 110.483 93.6264C111.211 93.6264 111.802 94.2168 111.802 94.9451Z" fill="#EC3D3D"/>
<path d="M126.309 87.033C126.309 87.7613 125.718 88.3516 124.99 88.3516C124.262 88.3516 123.671 87.7613 123.671 87.033C123.671 86.3047 124.262 85.7143 124.99 85.7143C125.718 85.7143 126.309 86.3047 126.309 87.033Z" fill="#FFC0C0"/>
<path d="M123.671 70.989C123.671 71.8387 122.982 72.5275 122.133 72.5275C121.283 72.5275 120.594 71.8387 120.594 70.989C120.594 70.1393 121.283 69.4505 122.133 69.4505C122.982 69.4505 123.671 70.1393 123.671 70.989Z" fill="#EC3D3D"/>
<path d="M37.0677 24.3956C37.0677 25.2453 36.3788 25.9341 35.5291 25.9341C34.6793 25.9341 33.9904 25.2453 33.9904 24.3956C33.9904 23.5459 34.6793 22.8571 35.5291 22.8571C36.3788 22.8571 37.0677 23.5459 37.0677 24.3956Z" fill="#EC3D3D"/>
<path d="M52.8937 30.5494C52.8937 31.3991 52.2049 32.0879 51.3551 32.0879C50.5053 32.0879 49.8165 31.3991 49.8165 30.5494C49.8165 29.6998 50.5053 29.011 51.3551 29.011C52.2049 29.011 52.8937 29.6998 52.8937 30.5494Z" fill="#EC3D3D"/>
<path d="M103.009 112.308C103.009 112.915 102.517 113.407 101.91 113.407C101.303 113.407 100.811 112.915 100.811 112.308C100.811 111.701 101.303 111.209 101.91 111.209C102.517 111.209 103.009 111.701 103.009 112.308Z" fill="#EC3D3D"/>
<path d="M7.61374 9.89011C7.61374 10.497 7.12169 10.989 6.51471 10.989C5.90774 10.989 5.41568 10.497 5.41568 9.89011C5.41568 9.2832 5.90774 8.79121 6.51471 8.79121C7.12169 8.79121 7.61374 9.2832 7.61374 9.89011Z" fill="#EC3D3D"/>
<path d="M51.1353 117.802C51.1353 118.53 50.5448 119.121 49.8165 119.121C49.0881 119.121 48.4976 118.53 48.4976 117.802C48.4976 117.074 49.0881 116.484 49.8165 116.484C50.5448 116.484 51.1353 117.074 51.1353 117.802Z" fill="#FFC0C0"/>
<path d="M83.2269 9.67033C83.2269 10.3986 82.6365 10.989 81.9081 10.989C81.1797 10.989 80.5893 10.3986 80.5893 9.67033C80.5893 8.94204 81.1797 8.35165 81.9081 8.35165C82.6365 8.35165 83.2269 8.94204 83.2269 9.67033Z" fill="#EC3D3D"/>
<path d="M15.5268 89.2308C15.5268 89.7163 15.1331 90.1099 14.6475 90.1099C14.1619 90.1099 13.7683 89.7163 13.7683 89.2308C13.7683 88.7452 14.1619 88.3516 14.6475 88.3516C15.1331 88.3516 15.5268 88.7452 15.5268 89.2308Z" fill="#EC3D3D"/>
</g>
</svg>
