<svg width="24" height="24" viewBox="0 0 24 24" fill="none" xmlns="http://www.w3.org/2000/svg">
<path fill-rule="evenodd" clip-rule="evenodd" d="M10.1864 5.28999C10.5975 5.67665 10.5975 6.30355 10.1864 6.6902L5.59391 11.0099H20.9474C21.5287 11.0099 22 11.4532 22 12C22 12.5468 21.5287 12.9901 20.9474 12.9901H5.59391L10.1864 17.3098C10.5975 17.6965 10.5975 18.3233 10.1864 18.71C9.77535 19.0967 9.10886 19.0967 8.69778 18.71L2.30831 12.7001C2.1109 12.5144 2 12.2626 2 12C2 11.7374 2.1109 11.4856 2.30831 11.2999L8.69778 5.28999C9.10886 4.90334 9.77535 4.90334 10.1864 5.28999Z" fill="#2F3845"/>
</svg>
