<svg width="24" height="25" viewBox="0 0 24 25" fill="none" xmlns="http://www.w3.org/2000/svg">
<path d="M6.5 10.376V14.376M22 13.376V11.376M6.8 18.376H14.2C15.8802 18.376 16.7202 18.376 17.362 18.049C17.9265 17.7614 18.3854 17.3024 18.673 16.7379C19 16.0962 19 15.2561 19 13.576V11.176C19 9.49582 19 8.65574 18.673 8.01401C18.3854 7.44952 17.9265 6.99058 17.362 6.70296C16.7202 6.37598 15.8802 6.37598 14.2 6.37598L6.8 6.37598C5.11984 6.37598 4.27976 6.37598 3.63803 6.70296C3.07354 6.99058 2.6146 7.44952 2.32698 8.01401C2 8.65574 2 9.49582 2 11.176L2 13.576C2 15.2561 2 16.0962 2.32698 16.7379C2.6146 17.3024 3.07354 17.7614 3.63803 18.049C4.27976 18.376 5.11984 18.376 6.8 18.376Z" stroke="#D62F2F" stroke-width="1.5" stroke-linecap="round" stroke-linejoin="round"/>
</svg>
