<svg width="24" height="25" viewBox="0 0 24 25" fill="none" xmlns="http://www.w3.org/2000/svg">
<path d="M6.5 10.2314V14.2314M10.5 10.2314L10.5 14.2314M14.5 10.2314L14.5 14.2314M22 13.2314V11.2314M6.8 18.2314H14.2C15.8802 18.2314 16.7202 18.2314 17.362 17.9045C17.9265 17.6168 18.3854 17.1579 18.673 16.5934C19 15.9517 19 15.1116 19 13.4314V11.0314C19 9.35129 19 8.51121 18.673 7.86947C18.3854 7.30499 17.9265 6.84605 17.362 6.55843C16.7202 6.23145 15.8802 6.23145 14.2 6.23145L6.8 6.23145C5.11984 6.23145 4.27976 6.23145 3.63803 6.55843C3.07354 6.84605 2.6146 7.30499 2.32698 7.86947C2 8.51121 2 9.35129 2 11.0314L2 13.4314C2 15.1116 2 15.9517 2.32698 16.5934C2.6146 17.1579 3.07354 17.6168 3.63803 17.9045C4.27976 18.2314 5.11984 18.2314 6.8 18.2314Z" stroke="#3A3D42" stroke-width="1.5" stroke-linecap="round" stroke-linejoin="round"/>
</svg>
