<svg width="24" height="24" viewBox="0 0 24 24" fill="none" xmlns="http://www.w3.org/2000/svg">
<path fill-rule="evenodd" clip-rule="evenodd" d="M19.6818 4.31819C19.2575 3.89394 18.5697 3.89394 18.1455 4.31819L12 10.4637L5.85453 4.31827C5.43028 3.89402 4.74244 3.89402 4.31819 4.31827C3.89394 4.74252 3.89394 5.43036 4.31819 5.85461L10.4636 12L4.31834 18.1453C3.89409 18.5696 3.89408 19.2574 4.31834 19.6816C4.74259 20.1059 5.43043 20.1059 5.85468 19.6817L12 13.5364L18.1453 19.6817C18.5696 20.106 19.2574 20.106 19.6816 19.6817C20.1059 19.2575 20.1059 18.5696 19.6816 18.1454L13.5363 12L19.6818 5.85453C20.106 5.43028 20.106 4.74244 19.6818 4.31819Z" fill="#2F3845"/>
</svg>
