<svg width="36" height="36" viewBox="0 0 36 36" fill="none" xmlns="http://www.w3.org/2000/svg">
	<rect width="36" height="36" rx="18" fill="white" />
	<path d="M26.9852 17.4692C26.6792 12.2493 21.9369 8.22642 16.4746 9.1264C12.713 9.74739 9.69845 12.7983 9.11352 16.5602C8.77157 18.7382 9.22153 20.7991 10.2024 22.5001L9.40149 25.479C9.22151 26.154 9.84242 26.766 10.5083 26.577L13.442 25.767C14.7738 26.55 16.3306 27 17.9954 27C23.0707 27 27.2822 22.5271 26.9852 17.4692ZM22.3958 21.3481C22.3148 21.5101 22.2158 21.6631 22.0898 21.8071C21.8649 22.0501 21.6219 22.2301 21.3519 22.3381C21.082 22.4551 20.785 22.5091 20.47 22.5091C20.0111 22.5091 19.5162 22.4011 19.0032 22.1761C18.4813 21.9511 17.9684 21.6541 17.4555 21.2851C16.9335 20.9071 16.4476 20.4841 15.9796 20.0252C15.5117 19.5572 15.0977 19.0622 14.7198 18.5492C14.3508 18.0362 14.0539 17.5232 13.8379 17.0102C13.6219 16.4972 13.514 16.0022 13.514 15.5343C13.514 15.2283 13.568 14.9313 13.6759 14.6613C13.7839 14.3823 13.9549 14.1303 14.1979 13.9053C14.4858 13.6173 14.8008 13.4823 15.1337 13.4823C15.2597 13.4823 15.3857 13.5093 15.5027 13.5633C15.6197 13.6173 15.7277 13.6983 15.8087 13.8153L16.8525 15.2912C16.9335 15.4082 16.9965 15.5072 17.0325 15.6062C17.0775 15.7052 17.0955 15.7952 17.0955 15.8852C17.0955 15.9932 17.0595 16.1012 16.9965 16.2092C16.9335 16.3172 16.8525 16.4252 16.7445 16.5332L16.4026 16.8932C16.3486 16.9472 16.3306 17.0012 16.3306 17.0732C16.3306 17.1092 16.3396 17.1452 16.3486 17.1812C16.3666 17.2172 16.3756 17.2442 16.3846 17.2712C16.4656 17.4242 16.6095 17.6132 16.8075 17.8472C17.0145 18.0812 17.2305 18.3242 17.4645 18.5582C17.7074 18.8012 17.9414 19.0172 18.1844 19.2242C18.4183 19.4222 18.6163 19.5572 18.7693 19.6382C18.7963 19.6472 18.8233 19.6651 18.8503 19.6741C18.8863 19.6921 18.9223 19.6922 18.9673 19.6922C19.0482 19.6922 19.1023 19.6652 19.1563 19.6112L19.4982 19.2692C19.6151 19.1522 19.7232 19.0712 19.8222 19.0172C19.9301 18.9542 20.0291 18.9182 20.1461 18.9182C20.2361 18.9182 20.3261 18.9362 20.4251 18.9812C20.5241 19.0262 20.632 19.0802 20.74 19.1612L22.2338 20.2231C22.3508 20.3041 22.4318 20.4032 22.4858 20.5111C22.5308 20.6281 22.5578 20.7361 22.5578 20.8621C22.5038 21.0151 22.4678 21.1861 22.3958 21.3481Z" fill="#189F7D" />
</svg>
