<svg width="21" height="21" viewBox="0 0 21 21" fill="none" xmlns="http://www.w3.org/2000/svg">
<path d="M10.5425 20.4062C16.0525 20.4062 20.5425 15.9163 20.5425 10.4063C20.5425 4.89625 16.0525 0.40625 10.5425 0.40625C5.03248 0.40625 0.542481 4.89625 0.54248 10.4062C0.54248 15.9162 5.03248 20.4062 10.5425 20.4062ZM11.2925 14.4062C11.2925 14.8162 10.9525 15.1562 10.5425 15.1562C10.1325 15.1562 9.79248 14.8162 9.79248 14.4062V9.40625C9.79248 8.99625 10.1325 8.65625 10.5425 8.65625C10.9525 8.65625 11.2925 8.99625 11.2925 9.40625V14.4062ZM9.62248 6.02625C9.67248 5.89625 9.74248 5.79625 9.83248 5.69625C9.93248 5.60625 10.0425 5.53625 10.1625 5.48625C10.2825 5.43625 10.4125 5.40625 10.5425 5.40625C10.6725 5.40625 10.8025 5.43625 10.9225 5.48625C11.0425 5.53625 11.1525 5.60625 11.2525 5.69625C11.3425 5.79625 11.4125 5.89625 11.4625 6.02625C11.5125 6.14625 11.5425 6.27625 11.5425 6.40625C11.5425 6.53625 11.5125 6.66625 11.4625 6.78625C11.4125 6.90625 11.3425 7.01625 11.2525 7.11625C11.1525 7.20625 11.0425 7.27625 10.9225 7.32625C10.6825 7.42625 10.4025 7.42625 10.1625 7.32625C10.0425 7.27625 9.93248 7.20625 9.83248 7.11625C9.74248 7.01625 9.67248 6.90625 9.62248 6.78625C9.57248 6.66625 9.54248 6.53625 9.54248 6.40625C9.54248 6.27625 9.57248 6.14625 9.62248 6.02625Z" fill="#3A7DE0"/>
</svg>
