<svg width="24" height="25" viewBox="0 0 24 25" fill="none" xmlns="http://www.w3.org/2000/svg">
<path fill-rule="evenodd" clip-rule="evenodd" d="M18.0381 7.21603C18.0307 7.22054 18.0233 7.22523 18.016 7.23002L17.9968 7.24278L17.9968 7.24278C17.9662 7.26324 17.9356 7.28368 17.9019 7.2966C17.8021 7.33513 17.7552 7.40051 17.7698 7.50675C18.2894 8.07424 18.7296 8.69665 19.0707 9.38618C19.4781 10.2094 19.7329 11.0758 19.8327 11.9884C20.0429 13.9156 19.5955 15.6818 18.5183 17.2926C18.3287 17.5758 18.1185 17.8437 17.8867 18.0954C17.7616 18.2308 17.7757 18.2951 17.9395 18.3867L18.7586 18.8435C19.6109 19.3187 20.463 19.7938 21.3144 20.2696C21.8404 20.5633 22.111 21.2102 21.9572 21.7987C21.7999 22.4012 21.2557 22.828 20.6405 22.8304C20.0687 22.8327 19.6519 22.5752 19.3777 22.0813L18.6824 20.8314C18.3015 20.1467 17.9205 19.4619 17.5391 18.7773C17.454 18.6243 17.3818 18.6109 17.2527 18.7271C16.2905 19.5906 15.1798 20.1779 13.9259 20.4985C13.0518 20.7221 12.1648 20.7776 11.2666 20.7052C10.2804 20.6258 9.34641 20.3613 8.46116 19.9281C7.84007 19.6239 7.27241 19.238 6.74759 18.7884C6.60905 18.6699 6.56209 18.6816 6.46992 18.8445L5.95335 19.7607L5.95218 19.7628L5.95127 19.7644L5.95055 19.7657L5.94982 19.7669C5.49488 20.5741 5.03945 21.3821 4.5826 22.1881C4.17989 22.8992 3.2189 23.0872 2.54733 22.591L2.54753 22.589C1.74974 21.9923 1.84112 20.7635 2.71346 20.2883C3.5468 19.8345 4.37786 19.3762 5.20882 18.9179L5.21328 18.9155L5.21698 18.9134C5.49842 18.7582 5.77984 18.603 6.06135 18.448C6.21985 18.361 6.22689 18.2863 6.10537 18.152C5.05868 16.996 4.40766 15.6508 4.15406 14.113C4.05309 13.5005 4.03254 12.8846 4.07774 12.2709C4.17167 10.9952 4.56029 9.80829 5.24184 8.71826C5.62635 8.10347 6.08483 7.5494 6.62138 7.06247C7.39451 6.36011 8.27155 5.82181 9.26012 5.47033C9.95752 5.2222 10.6743 5.06923 11.4163 5.02077C13.3072 4.89641 15.0213 5.37925 16.5693 6.46228C16.7665 6.60038 16.9515 6.7525 17.1365 6.90469L17.1365 6.9047L17.1666 6.92939L17.2127 6.96731C17.3366 7.0689 17.3988 7.06247 17.4775 6.9241C17.6901 6.54932 17.9018 6.17401 18.1134 5.7987L18.1139 5.79775L18.1387 5.75376L18.2589 5.54059L18.432 5.23388C18.5317 5.05726 18.6293 4.87946 18.7269 4.70169C18.9432 4.30765 19.1594 3.91374 19.3977 3.53314C19.97 2.61956 21.2113 2.68421 21.7345 3.5094C22.1747 4.1417 21.9736 5.03654 21.2674 5.43822C20.515 5.86563 19.7548 6.2797 18.9943 6.69392L18.9914 6.69552C18.6735 6.86867 18.3555 7.04184 18.0381 7.21603ZM14.0001 12.8691C14.0001 13.9737 13.1046 14.8691 12.0001 14.8691C10.8955 14.8691 10.0001 13.9737 10.0001 12.8691C10.0001 11.7646 10.8955 10.8691 12.0001 10.8691C13.1046 10.8691 14.0001 11.7646 14.0001 12.8691ZM12.0001 15.8691C13.6569 15.8691 15.0001 14.526 15.0001 12.8691C15.0001 11.2123 13.6569 9.86914 12.0001 9.86914C10.3432 9.86914 9.00006 11.2123 9.00006 12.8691C9.00006 14.526 10.3432 15.8691 12.0001 15.8691Z" fill="#3A3D42"/>
</svg>
