<svg width="32" height="32" viewBox="0 0 32 32" fill="none" xmlns="http://www.w3.org/2000/svg">
	<rect width="32" height="32" rx="16" fill="#F1F5F8" />
	<path fill-rule="evenodd" clip-rule="evenodd" d="M11.8333 7.66602C9.99238 7.66602 8.5 9.1584 8.5 10.9993V20.9993C8.5 22.8403 9.99238 24.3327 11.8333 24.3327H17.6667V16.8327C17.6667 15.9122 18.4129 15.166 19.3333 15.166H23.5V10.9993C23.5 9.1584 22.0076 7.66602 20.1667 7.66602H11.8333ZM11 10.9408C11 10.5129 11.3544 10.166 11.7917 10.166H18.125C18.5622 10.166 18.9167 10.5129 18.9167 10.9408C18.9167 11.3688 18.5622 11.7157 18.125 11.7157H11.7917C11.3544 11.7157 11 11.3688 11 10.9408ZM11.7917 13.2653C11.3544 13.2653 11 13.6123 11 14.0402C11 14.4681 11.3544 14.815 11.7917 14.815H15.75C16.1872 14.815 16.5417 14.4681 16.5417 14.0402C16.5417 13.6123 16.1872 13.2653 15.75 13.2653H11.7917Z" fill="#444F66" />
	<path d="M21.9849 19.7768H23.1017C23.399 19.7768 23.5919 20.0638 23.4553 20.3067L21.318 24.2298C21.2296 24.4064 20.9403 24.3402 20.9403 24.1488V21.2488H19.7351C19.5101 21.2488 19.3333 21.0869 19.3333 20.8808V17.2007C19.3333 16.9946 19.5101 16.8327 19.7351 16.8327H22.7402C23.0294 16.8327 23.2223 17.105 23.1098 17.3479L21.9849 19.7768Z" fill="#444F66" />
</svg>
