<svg width="18" height="18" viewBox="0 0 18 18" fill="none" xmlns="http://www.w3.org/2000/svg">
<path d="M8.99996 0.666748C4.40829 0.666748 0.666626 4.40841 0.666626 9.00008C0.666626 13.5917 4.40829 17.3334 8.99996 17.3334C13.5916 17.3334 17.3333 13.5917 17.3333 9.00008C17.3333 4.40841 13.5916 0.666748 8.99996 0.666748ZM12.9833 7.08342L8.25829 11.8084C8.1411 11.9255 7.98225 11.9912 7.81663 11.9912C7.651 11.9912 7.49215 11.9255 7.37496 11.8084L5.01663 9.45008C4.90039 9.33247 4.83521 9.17377 4.83521 9.00842C4.83521 8.84306 4.90039 8.68436 5.01663 8.56675C5.25829 8.32508 5.65829 8.32508 5.89996 8.56675L7.81663 10.4834L12.1 6.20008C12.3416 5.95842 12.7416 5.95842 12.9833 6.20008C13.225 6.44175 13.225 6.83342 12.9833 7.08342Z" fill="#1CBA92"/>
</svg>
