<svg width="36" height="36" viewBox="0 0 36 36" fill="none" xmlns="http://www.w3.org/2000/svg">
	<rect width="36" height="36" rx="18" fill="#F1F5F8" />
	<path d="M27.5599 16.7401L26.2099 15.1601C25.9599 14.8601 25.7499 14.3001 25.7499 13.9001V12.2001C25.7499 11.1401 24.8799 10.2701 23.8199 10.2701H22.1199C21.7199 10.2701 21.1499 10.0601 20.8499 9.81008L19.2699 8.46008C18.5799 7.87008 17.4499 7.87008 16.7599 8.46008L15.1599 9.81008C14.8599 10.0601 14.2999 10.2701 13.8999 10.2701H12.1699C11.1099 10.2701 10.2399 11.1401 10.2399 12.2001V13.9001C10.2399 14.2901 10.0399 14.8501 9.78988 15.1501L8.43988 16.7401C7.85988 17.4401 7.85988 18.5601 8.43988 19.2401L9.78988 20.8301C10.0399 21.1201 10.2399 21.6901 10.2399 22.0801V23.7901C10.2399 24.8501 11.1099 25.7201 12.1699 25.7201H13.9099C14.2999 25.7201 14.8699 25.9301 15.1699 26.1801L16.7499 27.5301C17.4399 28.1201 18.5699 28.1201 19.2599 27.5301L20.8399 26.1801C21.1399 25.9301 21.6999 25.7201 22.0999 25.7201H23.7999C24.8599 25.7201 25.7299 24.8501 25.7299 23.7901V22.0901C25.7299 21.6901 25.9399 21.1301 26.1899 20.8301L27.5399 19.2501C28.1499 18.5701 28.1499 17.4401 27.5599 16.7401ZM17.2499 14.1301C17.2499 13.7201 17.5899 13.3801 17.9999 13.3801C18.4099 13.3801 18.7499 13.7201 18.7499 14.1301V18.9601C18.7499 19.3701 18.4099 19.7101 17.9999 19.7101C17.5899 19.7101 17.2499 19.3701 17.2499 18.9601V14.1301ZM17.9999 22.8701C17.4499 22.8701 16.9999 22.4201 16.9999 21.8701C16.9999 21.3201 17.4399 20.8701 17.9999 20.8701C18.5499 20.8701 18.9999 21.3201 18.9999 21.8701C18.9999 22.4201 18.5599 22.8701 17.9999 22.8701Z" fill="#444F66" />
</svg>
