<svg width="32" height="32" viewBox="0 0 32 32" fill="none" xmlns="http://www.w3.org/2000/svg">
	<rect width="32" height="32" rx="16" fill="#F1F5F8" />
	<path fill-rule="evenodd" clip-rule="evenodd" d="M13.0834 7.66602H18.9167C22.2501 7.66602 23.0834 8.49935 23.0834 11.8327V16.416C23.0834 16.8743 22.7084 17.2493 22.2501 17.2493H11.2917C10.3834 17.2493 9.55008 17.591 8.91675 18.1493V11.8327C8.91675 8.49935 9.75008 7.66602 13.0834 7.66602ZM12.6667 14.9577H16.8334C17.1751 14.9577 17.4584 14.6743 17.4584 14.3327C17.4584 13.991 17.1751 13.7077 16.8334 13.7077H12.6667C12.3251 13.7077 12.0417 13.991 12.0417 14.3327C12.0417 14.6743 12.3251 14.9577 12.6667 14.9577ZM12.6667 12.041H19.3334C19.6751 12.041 19.9584 11.7577 19.9584 11.416C19.9584 11.0743 19.6751 10.791 19.3334 10.791H12.6667C12.3251 10.791 12.0417 11.0743 12.0417 11.416C12.0417 11.7577 12.3251 12.041 12.6667 12.041Z" fill="#444F66" />
	<path d="M23.0834 21.416V19.3327C23.0834 18.8743 22.7084 18.4993 22.2501 18.4993H11.2917C9.98341 18.4993 8.91675 19.566 8.91675 20.8743V21.416C8.91675 23.0244 10.2251 24.3327 11.8334 24.3327H20.1667C21.7751 24.3327 23.0834 23.0244 23.0834 21.416Z" fill="#444F66" />
</svg>
