<svg width="20" height="22" viewBox="0 0 20 22" fill="none" xmlns="http://www.w3.org/2000/svg">
<path d="M9.99996 3.66602C5.40829 3.66602 1.66663 7.40768 1.66663 11.9993C1.66663 16.591 5.40829 20.3327 9.99996 20.3327C14.5916 20.3327 18.3333 16.591 18.3333 11.9993C18.3333 7.40768 14.5916 3.66602 9.99996 3.66602ZM9.37496 8.66602C9.37496 8.32435 9.65829 8.04102 9.99996 8.04102C10.3416 8.04102 10.625 8.32435 10.625 8.66602V12.8327C10.625 13.1743 10.3416 13.4577 9.99996 13.4577C9.65829 13.4577 9.37496 13.1743 9.37496 12.8327V8.66602ZM10.7666 15.6493C10.725 15.7577 10.6666 15.841 10.5916 15.9243C10.5083 15.9993 10.4166 16.0577 10.3166 16.0993C10.2166 16.141 10.1083 16.166 9.99996 16.166C9.89163 16.166 9.78329 16.141 9.68329 16.0993C9.58329 16.0577 9.49163 15.9993 9.40829 15.9243C9.33329 15.841 9.27496 15.7577 9.23329 15.6493C9.19049 15.5492 9.16783 15.4416 9.16663 15.3327C9.16663 15.2243 9.19163 15.116 9.23329 15.016C9.27496 14.916 9.33329 14.8243 9.40829 14.741C9.49163 14.666 9.58329 14.6077 9.68329 14.566C9.88618 14.4827 10.1137 14.4827 10.3166 14.566C10.4166 14.6077 10.5083 14.666 10.5916 14.741C10.6666 14.8243 10.725 14.916 10.7666 15.016C10.8083 15.116 10.8333 15.2243 10.8333 15.3327C10.8333 15.441 10.8083 15.5493 10.7666 15.6493Z" fill="#E12424"/>
</svg>
