<svg width="16" height="16" viewBox="0 0 16 16" fill="none" xmlns="http://www.w3.org/2000/svg">
<path d="M14.2325 10.555L10.1456 3.19859C9.59642 2.2088 8.83651 1.66602 7.99998 1.66602C7.16345 1.66602 6.40354 2.2088 5.85437 3.19859L1.76749 10.555C1.25025 11.4937 1.19277 12.3941 1.60785 13.1029C2.02292 13.8117 2.8403 14.2012 3.9131 14.2012H12.0869C13.1597 14.2012 13.977 13.8117 14.3921 13.1029C14.8072 12.3941 14.7497 11.4873 14.2325 10.555ZM7.52105 6.13604C7.52105 5.87422 7.73816 5.65711 7.99998 5.65711C8.2618 5.65711 8.47891 5.87422 8.47891 6.13604V9.32891C8.47891 9.59073 8.2618 9.80784 7.99998 9.80784C7.73816 9.80784 7.52105 9.59073 7.52105 9.32891V6.13604ZM8.45337 11.698C8.42144 11.7236 8.38951 11.7491 8.35758 11.7747C8.31927 11.8002 8.28095 11.8194 8.24264 11.8321C8.20432 11.8513 8.16601 11.8641 8.12131 11.8704C8.08299 11.8768 8.03829 11.8832 7.99998 11.8832C7.96167 11.8832 7.91697 11.8768 7.87226 11.8704C7.83395 11.8641 7.79564 11.8513 7.75732 11.8321C7.71901 11.8194 7.68069 11.8002 7.64238 11.7747C7.61045 11.7491 7.57852 11.7236 7.54659 11.698C7.43165 11.5767 7.36141 11.4107 7.36141 11.2446C7.36141 11.0786 7.43165 10.9126 7.54659 10.7912C7.57852 10.7657 7.61045 10.7402 7.64238 10.7146C7.68069 10.6891 7.71901 10.6699 7.75732 10.6571C7.79564 10.638 7.83395 10.6252 7.87226 10.6188C7.95528 10.5997 8.04468 10.5997 8.12131 10.6188C8.16601 10.6252 8.20432 10.638 8.24264 10.6571C8.28095 10.6699 8.31927 10.6891 8.35758 10.7146C8.38951 10.7402 8.42144 10.7657 8.45337 10.7912C8.56831 10.9126 8.63855 11.0786 8.63855 11.2446C8.63855 11.4107 8.56831 11.5767 8.45337 11.698Z" fill="#F29303"/>
</svg>
