<svg width="21" height="21" viewBox="0 0 21 21" fill="none" xmlns="http://www.w3.org/2000/svg">
<path d="M10.4863 0.188477C4.97633 0.188477 0.486328 4.67848 0.486328 10.1885C0.486328 15.6985 4.97633 20.1885 10.4863 20.1885C15.9963 20.1885 20.4863 15.6985 20.4863 10.1885C20.4863 4.67848 15.9963 0.188477 10.4863 0.188477ZM9.73633 6.18848C9.73633 5.77848 10.0763 5.43848 10.4863 5.43848C10.8963 5.43848 11.2363 5.77848 11.2363 6.18848V11.1885C11.2363 11.5985 10.8963 11.9385 10.4863 11.9385C10.0763 11.9385 9.73633 11.5985 9.73633 11.1885V6.18848ZM11.4063 14.5685C11.3563 14.6985 11.2863 14.7985 11.1963 14.8985C11.0963 14.9885 10.9863 15.0585 10.8663 15.1085C10.7463 15.1585 10.6163 15.1885 10.4863 15.1885C10.3563 15.1885 10.2263 15.1585 10.1063 15.1085C9.98633 15.0585 9.87633 14.9885 9.77633 14.8985C9.68633 14.7985 9.61633 14.6985 9.56633 14.5685C9.51496 14.4483 9.48778 14.3192 9.48633 14.1885C9.48633 14.0585 9.51633 13.9285 9.56633 13.8085C9.61633 13.6885 9.68633 13.5785 9.77633 13.4785C9.87633 13.3885 9.98633 13.3185 10.1063 13.2685C10.3498 13.1685 10.6229 13.1685 10.8663 13.2685C10.9863 13.3185 11.0963 13.3885 11.1963 13.4785C11.2863 13.5785 11.3563 13.6885 11.4063 13.8085C11.4563 13.9285 11.4863 14.0585 11.4863 14.1885C11.4863 14.3185 11.4563 14.4485 11.4063 14.5685V14.5685Z" fill="#F4B40F"/>
</svg>
