<svg width="136" height="120" viewBox="0 0 136 120" fill="none" xmlns="http://www.w3.org/2000/svg">
<g clip-path="url(#clip0_398_4784)">
<path d="M0 30.7312C0 21.3615 6.87105 14.4905 16.605 14.4905C26.339 14.4905 33.2101 21.3615 33.2101 30.7312C33.2101 40.1008 26.339 46.9718 16.605 46.9718C6.87105 46.9718 0 40.1008 0 30.7312ZM28.9417 30.7312C28.9417 23.5998 23.9446 18.3945 16.605 18.3945C9.26551 18.3945 4.26838 23.5998 4.26838 30.7312C4.26838 37.8625 9.26551 43.0678 16.605 43.0678C23.9446 43.0678 28.9417 37.8104 28.9417 30.7312Z" fill="white"/>
<path d="M36.8542 30.7312C36.8542 21.3615 43.7253 14.4905 53.4593 14.4905C61.4755 14.4905 67.5137 19.1232 69.3356 25.9943H65.0672C63.4015 21.3615 59.0811 18.3945 53.4593 18.3945C46.0677 18.3945 41.1226 23.6519 41.1226 30.7312C41.1226 37.8104 46.1198 43.0678 53.4593 43.0678C59.0811 43.0678 63.4015 40.0487 65.0672 35.468H69.3356C67.5137 42.3391 61.4755 46.9718 53.4593 46.9718C43.7253 46.9718 36.8542 40.1008 36.8542 30.7312Z" fill="white"/>
<path d="M74.3323 34.7912V4.39197H78.4966V15.3232H96.6632V19.1231H78.4966V34.7912C78.4966 40.413 81.6198 43.0677 86.4087 43.0677C91.1976 43.0677 94.3209 40.465 94.3209 34.7912V34.1145H98.381V34.7912C98.381 42.9115 93.488 46.9717 86.4087 46.9717C79.3295 46.9717 74.2803 42.9115 74.2803 34.7912H74.3323Z" fill="white"/>
<path d="M102.442 30.7312C102.442 21.3615 109.313 14.4905 119.047 14.4905C128.781 14.4905 135.652 21.3615 135.652 30.7312C135.652 40.1008 128.781 46.9718 119.047 46.9718C109.313 46.9718 102.442 40.1008 102.442 30.7312ZM131.384 30.7312C131.384 23.5998 126.387 18.3945 119.047 18.3945C111.708 18.3945 106.711 23.6519 106.711 30.7312C106.711 37.8104 111.708 43.0678 119.047 43.0678C126.387 43.0678 131.384 37.8104 131.384 30.7312Z" fill="white"/>
<path d="M0 101.867H8.18912C8.18912 107.77 12.4432 112.13 20.0474 112.13C27.6516 112.13 31.7461 107.663 31.7461 101.867C31.7461 95.6455 27.7579 91.7104 19.7283 91.7104H12.975V84.2126H19.7283C26.4817 84.2126 29.8318 81.1815 29.8318 75.7576C29.8318 71.0249 26.4285 67.1962 20.1006 67.1962C13.7726 67.1962 10.6352 70.9185 10.3162 75.8639H2.02069C2.39293 65.2287 9.62488 59.3793 20.1006 59.3793C30.5763 59.3793 38.1805 65.5478 38.1805 75.1726C38.1805 81.3411 35.4153 85.7015 30.4167 87.8286V87.9881C36.6384 90.2215 40.3075 95.1137 40.3075 102.346C40.3075 113.247 31.8525 120 20.0474 120C8.2423 120 0.106352 113.247 0 101.867Z" fill="white"/>
<path d="M46.103 99.1532C46.103 91.1236 49.5595 85.9655 51.6333 82.7218L66.0972 60.441H75.4562L62.0559 80.7011C64.0234 79.6376 66.4163 78.8931 69.3942 78.8931C80.0294 78.8931 87.474 87.614 87.474 99.2064C87.474 111.49 79.019 119.892 66.7885 119.892C54.558 119.892 46.103 111.331 46.103 99.1V99.1532ZM78.9127 98.9937C78.9127 91.1236 74.18 86.125 66.8949 86.125C59.6098 86.125 54.6644 91.1236 54.6644 99.1532C54.6644 107.183 59.3971 112.075 66.7885 112.075C74.18 112.075 78.9127 107.076 78.9127 98.9937Z" fill="white"/>
<path d="M94.2837 99.1535V80.0632C94.2837 67.5137 102.739 59.2714 114.969 59.2714C127.2 59.2714 135.655 67.4605 135.655 80.0632V99.1535C135.655 111.703 127.2 119.945 114.969 119.945C102.739 119.945 94.2837 111.756 94.2837 99.1535ZM127.2 99.1535V80.0632C127.2 72.14 122.467 67.1414 114.969 67.1414C107.471 67.1414 102.739 72.14 102.739 80.0632V99.1535C102.739 107.077 107.471 112.075 114.969 112.075C122.467 112.075 127.2 107.077 127.2 99.1535Z" fill="white"/>
</g>
<defs>
<clipPath id="clip0_398_4784">
<rect width="135.652" height="120" fill="white"/>
</clipPath>
</defs>
</svg>
