<svg width="245" height="246" viewBox="0 0 245 246" fill="none" xmlns="http://www.w3.org/2000/svg">
<g clip-path="url(#clip0_445_5880)">
<circle cx="122.583" cy="123.407" r="122.583" fill="white"/>
<mask id="mask0_445_5880" style="mask-type:alpha" maskUnits="userSpaceOnUse" x="0" y="0" width="246" height="246">
<circle cx="122.583" cy="123.407" r="122.583" fill="white"/>
</mask>
<g mask="url(#mask0_445_5880)">
<g opacity="0.6">
<path d="M104.213 138.255C101.688 140.447 98.4499 140.853 96.981 139.161L77.9836 117.281C76.5148 115.589 77.3712 112.44 79.8966 110.248C82.4219 108.055 85.6599 107.649 87.1288 109.341L106.126 131.221C107.595 132.913 106.739 136.062 104.213 138.255Z" fill="#CDDEF8"/>
<path d="M101.417 134.167C99.7594 135.606 97.5411 135.765 96.4619 134.522L82.5046 118.446C81.4255 117.204 81.8941 115.029 83.5514 113.591C85.2086 112.152 87.427 111.993 88.5061 113.236L102.463 129.311C103.543 130.554 103.074 132.728 101.417 134.167Z" fill="#ADC5F0"/>
<path d="M98.3855 130.533C97.478 131.321 96.159 131.288 95.4396 130.459L86.1347 119.742C85.4153 118.914 85.5678 117.603 86.4753 116.815C87.3829 116.027 88.7018 116.06 89.4213 116.889L98.7261 127.606C99.4456 128.434 99.2931 129.745 98.3855 130.533Z" fill="#3A7DE0"/>
</g>
<path fill-rule="evenodd" clip-rule="evenodd" d="M145.924 178.178C146.235 183.152 143.934 193.1 132.246 193.1L132.246 193.099C120.58 193.084 118.283 183.147 118.594 178.177C118.594 175.039 121.687 165.609 124.357 157.465C125.497 153.991 126.559 150.75 127.272 148.333L132.273 148.333L132.273 148.334L137.246 148.334C137.959 150.751 139.021 153.991 140.161 157.466C142.831 165.609 145.924 175.04 145.924 178.178Z" fill="#2F2F2F"/>
<path fill-rule="evenodd" clip-rule="evenodd" d="M132.343 189.368C123.902 189.368 122.24 182.184 122.465 178.591C122.465 176.356 124.637 169.701 126.547 163.876L138.12 163.876C140.03 169.701 142.202 176.356 142.202 178.591C142.427 182.18 140.768 189.357 132.343 189.368L132.343 189.368Z" fill="#D62F2F"/>
<path d="M127.919 147.09L136.624 147.09L135.691 143.982L128.852 143.982L127.919 147.09Z" fill="#2F2F2F"/>
<path d="M129.787 142.738L134.761 142.738L134.228 139.629L130.319 139.629L129.787 142.738Z" fill="#2F2F2F"/>
<path d="M137.799 176.557L137.658 184.429L136.71 184.412L136.836 177.375L133.032 177.306L133.047 176.472L137.799 176.557Z" fill="white"/>
<path d="M130.572 176.427L130.431 184.299L129.483 184.282L129.609 177.245L125.805 177.177L125.82 176.342L130.572 176.427Z" fill="white"/>
<path fill-rule="evenodd" clip-rule="evenodd" d="M232.033 93.3314C232.033 93.3253 232.033 93.3192 232.033 93.3131L232.033 93.3131C232.017 81.6482 222.081 79.3516 217.111 79.6622C213.973 79.6622 204.543 82.7548 196.399 85.4254C192.925 86.5648 189.684 87.6274 187.267 88.3402L187.267 93.3407L187.267 98.3135C189.684 99.0263 192.925 100.089 196.399 101.228C204.543 103.899 213.973 106.992 217.111 106.992C222.081 107.302 232.017 105.006 232.033 93.3407L232.033 93.3407C232.033 93.3376 232.033 93.3345 232.033 93.3314Z" fill="#2F2F2F"/>
<path fill-rule="evenodd" clip-rule="evenodd" d="M228.301 93.2439C228.301 101.686 221.117 103.347 217.524 103.123C215.289 103.123 208.632 100.95 202.807 99.0397L202.807 87.4679C208.632 85.5578 215.289 83.3848 217.524 83.3848C221.114 83.1605 228.29 84.8192 228.301 93.2439L228.301 93.2439Z" fill="black"/>
<path d="M186.022 97.6669L186.022 88.9624L182.914 89.895L182.914 96.7343L186.022 97.6669Z" fill="#2F2F2F"/>
<path d="M181.669 95.7997L181.669 90.8257L178.56 91.3586L178.56 95.2667L181.669 95.7997Z" fill="#2F2F2F"/>
<path d="M222.035 96.8758L214.859 94.2335L214.863 93.1664L222.737 96.2071L222.734 96.8951L222.035 96.8758ZM214.838 99.033L222.037 96.4478L222.736 96.4346L222.733 97.1226L214.833 100.106L214.838 99.033ZM217.758 98.9102L216.902 98.9065L216.921 94.4754L217.777 94.4792L217.758 98.9102Z" fill="white"/>
<path d="M214.767 86.9793L222.78 87.0142L222.776 87.8795L215.54 87.848L215.525 91.3204L214.748 91.317L214.767 86.9793Z" fill="white"/>
<path fill-rule="evenodd" clip-rule="evenodd" d="M43.4995 79.6622C38.5255 79.3514 28.5775 81.6518 28.5775 93.3407L28.5776 93.3407C28.5929 105.006 38.5294 107.303 43.4995 106.992C46.6373 106.992 56.0678 103.899 64.2113 101.229C67.6859 100.089 70.9262 99.0269 73.3435 98.3141L73.3435 93.3136L73.3434 93.3136L73.3434 88.3403C70.9262 87.6275 67.6859 86.5649 64.2113 85.4254C56.0678 82.7548 46.6373 79.6622 43.4995 79.6622Z" fill="#2F2F2F"/>
<path fill-rule="evenodd" clip-rule="evenodd" d="M32.3071 93.4099C32.3071 84.968 39.4918 83.3065 43.0841 83.531C45.3193 83.531 51.9756 85.7038 57.8006 87.6139L57.8006 99.1861C51.9756 101.096 45.3194 103.269 43.0843 103.269C39.4948 103.493 32.3186 101.835 32.3073 93.4099L32.3071 93.4099Z" fill="white"/>
<path d="M74.5888 88.9879L74.5888 97.6924L77.6976 96.7598L77.6976 89.9205L74.5888 88.9879Z" fill="#2F2F2F"/>
<path d="M78.942 90.8546L78.942 95.8286L82.0508 95.2957L82.0508 91.3875L78.942 90.8546Z" fill="#2F2F2F"/>
<path d="M37.9046 100.18L37.9046 97.5462C37.9046 96.9488 37.9957 96.4442 38.1778 96.0326C38.36 95.6172 38.6296 95.3021 38.9866 95.0872C39.34 94.8686 39.7753 94.7593 40.2926 94.7593C40.6569 94.7593 40.9903 94.834 41.2926 94.9834C41.5914 95.1291 41.8464 95.3404 42.0577 95.6172C42.2653 95.8905 42.4202 96.2183 42.5222 96.6009L42.6369 96.896L42.6369 99.3714L41.779 99.3823L41.779 97.5135C41.779 97.1346 41.7134 96.8195 41.5823 96.5681C41.4475 96.3167 41.2671 96.1273 41.0413 95.9998C40.8154 95.8723 40.5659 95.8085 40.2926 95.8085C39.9866 95.8085 39.7188 95.8686 39.4893 95.9888C39.2598 96.1091 39.0831 96.2985 38.9593 96.5572C38.8318 96.8122 38.768 97.1419 38.768 97.5462L38.768 99.1255L45.861 99.1255L45.861 100.18L37.9046 100.18ZM45.861 95.5298L42.2544 97.4643L42.249 96.3659L45.7955 94.4041L45.861 94.4041L45.861 95.5298Z" fill="#2F2F2F"/>
<path d="M38.6095 89.0078L45.861 91.6417L45.861 92.7183L37.9046 89.6854L37.9046 88.9914L38.6095 89.0078ZM45.861 86.8001L38.6095 89.4395L37.9046 89.4559L37.9046 88.7619L45.861 85.7181L45.861 86.8001ZM42.9156 86.9367L43.779 86.9367L43.779 91.4068L42.9156 91.4068L42.9156 86.9367Z" fill="#2F2F2F"/>
<path d="M177.829 91.6343C177.829 117.738 156.669 138.898 130.565 138.898C104.462 138.898 83.3014 117.738 83.3014 91.6343C83.3014 65.5311 104.462 44.3702 130.565 44.3702C156.669 44.3702 177.829 65.5311 177.829 91.6343Z" fill="#F5F6FA" stroke="#C0C5D1" stroke-width="1.46016"/>
<path d="M130.566 129.534C151.498 129.534 168.466 112.566 168.466 91.6342C168.466 70.7024 151.498 53.7339 130.566 53.7339C109.634 53.7339 92.6658 70.7024 92.6658 91.6342C92.6658 112.566 109.634 129.534 130.566 129.534Z" fill="#C0C5D1"/>
<path d="M130.564 106.872C138.979 106.872 145.801 100.05 145.801 91.6346C145.801 83.2194 138.979 76.3975 130.564 76.3975C122.149 76.3975 115.327 83.2194 115.327 91.6346C115.327 100.05 122.149 106.872 130.564 106.872Z" fill="#F5F6FA"/>
<path d="M91.2234 120.188C91.7367 119.709 92.4553 119.646 92.8282 120.047L97.6522 125.225C98.0252 125.625 97.9114 126.337 97.398 126.816C96.8846 127.294 96.1661 127.357 95.7931 126.957L90.9692 121.779C90.5962 121.378 90.71 120.666 91.2234 120.188Z" fill="#282828"/>
<path d="M94.4245 319.394C94.1429 276.517 99.4834 264.573 97.6833 259.311C96.9352 257.124 99.5647 252.29 99.5647 252.29C99.5647 252.29 108.426 239.184 117.12 206.738C117.89 203.199 117.733 195.667 110.944 193.848C111.458 190.598 110.61 183.914 103.101 183.186C104.159 179.903 104.897 173.289 99.3843 173.096C93.7862 172.903 90.4403 172.238 89.2235 174.231C89.6226 170.199 90.1669 165.392 90.8101 161.168C92.2194 151.915 93.459 145.292 94.6007 137.038C95.7424 128.784 95.9208 126.121 90.9291 124.784C85.9374 123.446 84.9923 126.973 83.1197 133.962L77.6359 154.428C76.6369 158.156 74.363 170.636 71.9493 178.549C72.4651 172.357 71.6057 168.327 68.7654 167.566C63.7737 166.229 64.7003 170.757 63.1311 174.617C61.562 178.476 59.4936 182.202 57.7286 182.799C55.9636 183.396 55.9898 189.288 53.716 197.774C51.4422 206.26 50.1309 217.144 51.0934 219.542C52.0559 221.94 55.3702 241.518 56.9298 245.681C58.1775 249.011 46.5432 301.749 44.5075 306.018L94.4245 319.394Z" fill="#FFE2C9"/>
<path d="M69.3414 193.367C69.6806 188.108 69.988 189.371 70.9822 185.247C72.3147 179.719 71.9902 177.492 71.9902 177.492C71.9902 177.492 73.9152 182.287 71.436 195.533C69.7196 204.704 67.5962 205.205 67.2634 205.115C69.4034 197.129 69.0022 198.626 69.3414 193.367Z" fill="#F9C5AD"/>
<path d="M87.0212 163.327C85.6575 162.427 83.6144 161.666 80.8974 162.222" stroke="#F9C5AD" stroke-width="0.38032"/>
<path d="M87.1102 164.993C85.4789 165.091 81.7975 164.853 80.1218 163.12" stroke="#F9C5AD" stroke-width="0.38032"/>
<path d="M89.6611 147.486C88.2527 146.752 85.0563 145.503 83.5373 146.38" stroke="#F9C5AD" stroke-width="0.38032"/>
<path d="M61.0609 186.334C59.5993 183.802 58.9664 184.167 56.8825 183.958" stroke="#F9C5AD" stroke-width="0.38032"/>
<path d="M89.5605 174.382C89.0988 178.139 92.1626 192.255 89.7765 192.948" stroke="#F9C5AD" stroke-width="0.38032"/>
<path d="M103.002 183.381C102.427 187.345 102.078 192.503 102.879 194.549C103.68 196.595 103.146 201.117 102.741 202.098" stroke="#F9C5AD" stroke-width="0.38032"/>
<path d="M110.936 193.764C111.151 196.291 111.022 198.665 111.783 200.25C113.092 202.976 112.605 206.052 112.322 206.566" stroke="#F9C5AD" stroke-width="0.38032"/>
<path d="M91.4491 123.854C97.1861 125.391 93.3169 131.845 92.8042 135.755C92.1646 137.233 84.8637 135.449 84.8174 133.615C86.1948 130.471 86.0979 122.421 91.4491 123.854Z" fill="#FFF1E7" stroke="url(#paint0_linear_445_5880)" stroke-width="0.38032"/>
<path d="M64.8683 176.118C66.2019 174.335 66.8745 168.63 66.1437 167.364C65.5613 166.356 63.6421 167.032 63.5762 170.957C63.5404 173.087 61.2355 177.134 61.7036 177.945C62.069 178.578 63.5346 177.901 64.8683 176.118Z" fill="#FFF1E7" stroke="url(#paint1_linear_445_5880)" stroke-width="0.38032"/>
<path d="M70.2682 134.061C70.2293 134.226 70.3314 134.391 70.4961 134.43L73.1807 135.063C73.3454 135.101 73.5104 134.999 73.5493 134.835C73.5881 134.67 73.486 134.505 73.3213 134.466L70.9351 133.903L71.4976 131.517C71.5365 131.353 71.4344 131.187 71.2697 131.149C71.1049 131.11 70.9399 131.212 70.9011 131.377L70.2682 134.061ZM88.6182 122.607L70.4053 133.871L70.7276 134.392L88.9406 123.128L88.6182 122.607Z" fill="#8DB3EB"/>
<circle cx="17.1439" cy="17.1439" r="16.8375" transform="matrix(1 0 0 -1 34.8868 161.181)" fill="#282A2E" stroke="#D9E7FA" stroke-width="0.612914"/>
<circle cx="52.2708" cy="143.517" r="8.55539" transform="rotate(-90 52.2708 143.517)" stroke="white" stroke-width="1.22583"/>
<path d="M54.0111 140.367C54.1595 140.107 54.4934 140.014 54.7318 140.195C55.3084 140.634 55.762 141.219 56.0426 141.893C56.3931 142.736 56.4542 143.671 56.2164 144.551C55.9786 145.432 55.4553 146.209 54.7286 146.761C54.0018 147.313 53.1126 147.608 52.2003 147.6C51.2879 147.592 50.404 147.282 49.6869 146.717C48.9697 146.153 48.46 145.367 48.2375 144.483C48.015 143.598 48.0922 142.664 48.4572 141.828C48.7495 141.158 49.2131 140.581 49.7972 140.153C50.0387 139.975 50.3709 140.074 50.5148 140.337C50.6588 140.6 50.5585 140.926 50.3257 141.114C49.9482 141.419 49.6473 141.812 49.451 142.262C49.1821 142.878 49.1251 143.566 49.2891 144.218C49.4531 144.87 49.8288 145.449 50.3573 145.865C50.8858 146.281 51.5373 146.51 52.2097 146.515C52.882 146.521 53.5374 146.304 54.073 145.897C54.6086 145.491 54.9942 144.918 55.1695 144.269C55.3447 143.62 55.2997 142.931 55.0414 142.31C54.853 141.857 54.5588 141.459 54.1868 141.147C53.9572 140.955 53.8626 140.627 54.0111 140.367Z" fill="white"/>
<path fill-rule="evenodd" clip-rule="evenodd" d="M52.3231 144.344C51.9831 144.344 51.7074 144.046 51.7074 143.677L51.7074 139.675C51.7074 139.306 51.9831 139.008 52.3231 139.008C52.6632 139.008 52.9389 139.306 52.9389 139.675L52.9389 143.677C52.9389 144.046 52.6632 144.344 52.3231 144.344Z" fill="white"/>
</g>
<circle cx="122.583" cy="123.407" r="119.411" stroke="#D62F2F" stroke-width="6.34304"/>
<rect x="188.54" y="24.7236" width="6.12914" height="237.073" transform="rotate(35 188.54 24.7236)" fill="#D62F2F"/>
</g>
<defs>
<linearGradient id="paint0_linear_445_5880" x1="94.7628" y1="113.882" x2="85.5422" y2="152.523" gradientUnits="userSpaceOnUse">
<stop offset="0.259349" stop-color="#FFCAB1"/>
<stop offset="0.971765" stop-color="white" stop-opacity="0"/>
</linearGradient>
<linearGradient id="paint1_linear_445_5880" x1="68.6815" y1="157.545" x2="61.4297" y2="194.323" gradientUnits="userSpaceOnUse">
<stop offset="0.237647" stop-color="#FBD4C2"/>
<stop offset="0.971765" stop-color="white" stop-opacity="0"/>
</linearGradient>
<clipPath id="clip0_445_5880">
<rect width="245" height="245" fill="white" transform="translate(0 0.824707)"/>
</clipPath>
</defs>
</svg>
