<svg width="343" height="246" viewBox="0 0 343 246" fill="none" xmlns="http://www.w3.org/2000/svg">
<g clip-path="url(#clip0_445_5595)">
<path fill-rule="evenodd" clip-rule="evenodd" d="M200.972 332.115C199.85 330.244 198.727 328.28 197.698 326.316C196.763 324.538 196.295 322.574 195.827 320.61C194.985 317.055 194.144 313.594 193.208 310.133C192.834 308.824 192.086 307.888 191.244 306.859C189.186 304.427 187.315 301.808 185.257 299.469C183.76 297.692 183.293 295.634 183.199 293.296C183.106 290.302 182.638 287.402 182.451 284.503C182.077 280.013 181.703 275.523 181.422 270.939C181.235 267.291 181.141 263.643 180.954 259.995C180.58 252.044 180.019 244.093 178.429 236.235C177.587 232.213 176.371 228.284 174.78 224.449C174.5 223.701 174.313 222.952 174.406 222.017C175.529 214.908 174.968 207.799 173.751 200.69C172.255 191.71 169.823 182.917 167.017 174.311C166.455 172.627 166.642 170.943 167.017 169.26C167.297 167.576 167.578 165.892 167.484 164.208C167.484 163.928 167.484 163.647 167.484 163.46C168.887 153.919 165.426 144.471 160.843 136.239C157.008 129.317 151.863 125.95 146.063 122.582C144.379 121.553 142.228 121.273 140.357 120.618C139.515 120.337 138.58 120.244 137.644 120.057C135.493 119.683 133.529 118.654 131.564 117.531C127.729 115.286 123.987 113.135 120.152 110.983C117.346 109.487 114.446 108.083 111.64 106.68C111.453 106.587 111.359 106.493 111.172 106.493C109.395 105.651 108.647 105.09 108.834 103.313C109.021 101.91 110.143 90.4977 110.424 87.1302C110.424 87.1302 110.424 87.1302 110.424 87.0366C105.934 89.3752 94.0541 94.9877 90.406 95.6424C86.7579 94.9877 74.8781 89.3752 70.3881 87.0366C70.3881 87.0366 70.3881 87.0366 70.3881 87.1302C70.6688 90.4041 71.7913 101.91 71.9783 103.313C72.1654 105.09 71.4171 105.651 69.6398 106.493C69.4527 106.587 69.2656 106.68 69.1721 106.68C66.3659 108.083 63.4661 109.393 60.6598 110.983C56.8246 113.041 52.9894 115.286 49.2478 117.531C47.2834 118.654 45.319 119.683 43.1676 120.057C42.2322 120.244 41.2967 120.337 40.4549 120.618C38.4905 121.179 36.4326 121.553 34.7488 122.582C28.9493 125.95 23.8045 129.317 19.9693 136.239C15.3857 144.471 12.0183 153.919 13.3278 163.46C13.3278 163.741 13.3278 164.021 13.3278 164.208C13.1408 165.892 13.4214 167.576 13.7955 169.26C14.0762 170.943 14.2633 172.627 13.7955 174.311C10.9893 182.917 8.55722 191.803 7.06055 200.69C5.84451 207.705 5.3768 214.814 6.40576 222.017C6.4993 222.859 6.40577 223.607 6.0316 224.449C4.44139 228.284 3.22535 232.213 2.38348 236.235C0.793272 244.093 0.232025 251.95 -0.142141 259.995C-0.329224 263.643 -0.422768 267.291 -0.60985 270.939C-0.890474 275.429 -1.26464 279.919 -1.63881 284.503C-1.91943 287.496 -2.2936 290.396 -2.38714 293.296C-2.48068 295.634 -2.94839 297.598 -4.44505 299.469C-6.50296 301.901 -8.37379 304.427 -10.4317 306.859C-11.2736 307.888 -12.1155 308.917 -12.3961 310.133C-13.3315 313.594 -14.1734 317.149 -15.0152 320.61C-15.4829 322.574 -15.8571 324.538 -16.8861 326.316C-17.915 328.28 -19.0375 330.151 -20.16 332.115C-20.8148 333.238 -20.5342 334.173 -19.2246 334.454C-17.1667 334.922 -15.2023 334.922 -13.5186 333.425C-12.4896 332.49 -11.5542 331.461 -10.6188 330.525C-10.3382 330.151 -10.0575 329.777 -9.77692 329.403C-9.68337 329.403 -9.58983 329.496 -9.49629 329.496C-9.49629 329.964 -9.58983 330.432 -9.58983 330.899C-9.964 334.454 -10.4317 338.008 -10.8059 341.563C-11.0865 344.65 -11.3671 347.737 -11.5542 350.824C-11.6477 352.04 -11.6477 353.256 -11.5542 354.472C-11.5542 355.033 -11.18 355.407 -10.6188 355.594C-10.1511 355.781 -9.87046 355.407 -9.49629 355.126C-7.53192 353.349 -6.59651 351.011 -6.03526 348.579C-4.91276 344.089 -3.8838 339.599 -2.7613 335.109C-2.66776 334.828 -2.48068 334.547 -2.38714 334.267C-2.10651 334.547 -2.01297 334.828 -2.10651 335.015C-2.10651 336.138 -2.20005 337.26 -2.2936 338.383C-2.38714 341.189 -2.57422 343.995 -2.7613 346.895C-2.94839 350.356 -2.94839 353.723 -2.48068 357.184C-2.20005 357.278 -1.82589 357.372 -1.63881 357.559C-0.890474 358.026 -0.329224 357.839 0.232025 357.278C0.51265 356.904 0.793274 356.436 0.980356 355.968C2.1964 352.32 2.6641 348.392 3.31889 344.65C3.69306 342.498 3.97368 340.347 4.25431 338.196C4.34785 338.57 4.44139 338.85 4.44139 339.224C4.44139 342.966 4.44139 346.801 4.53493 350.543C4.53493 351.853 4.72202 353.256 4.9091 354.565C5.00264 355.407 5.56389 355.875 6.40576 355.968C6.96701 356.062 7.71534 355.501 7.99597 354.846C8.18305 354.472 8.18305 354.098 8.27659 353.723C8.55722 351.946 8.83784 350.075 9.11847 348.017C9.67972 349.327 10.0539 350.356 10.5216 351.385C11.1764 352.788 11.1764 352.788 12.673 352.601C12.8601 352.601 12.9537 352.601 13.2343 352.507C13.4214 351.853 13.6085 351.104 13.6085 350.449C13.6085 348.579 13.5149 346.708 13.5149 344.837C13.5149 340.347 12.9537 335.857 14.0762 331.367C14.731 328.841 14.5439 326.129 14.731 323.416C14.8245 322.574 14.731 321.639 14.8245 320.797C15.1987 317.336 15.3857 313.875 15.1987 310.414C15.1051 307.14 14.8245 303.772 13.7955 300.592C13.4214 299.376 13.4214 298.44 13.8891 297.318C15.3857 293.296 16.9759 289.273 18.2855 285.158C21.3724 275.429 24.2722 265.701 27.172 255.973C29.0428 249.892 30.1653 243.625 29.9782 237.171C29.8847 235.581 30.1653 233.897 30.2588 232.213C30.3524 230.249 30.3524 228.191 30.2588 226.226C30.2588 225.01 30.3524 223.981 31.0072 222.859C32.7845 219.678 34.094 216.405 35.4036 212.943C36.7132 209.389 37.7422 205.647 38.6776 201.906C38.7711 201.438 38.6235 189.38 39.1848 189.006C39.8396 190.409 40.5484 203.309 41.1097 204.618C41.2032 204.899 41.2032 205.18 41.2032 205.554C41.7644 210.698 42.2321 215.937 42.7934 221.082C43.074 223.981 43.6353 226.881 43.7288 229.781C43.9159 233.055 43.8224 236.422 43.8224 239.696C43.9159 243.812 44.0094 247.834 44.1965 251.95C44.2901 253.54 44.6642 255.131 45.0384 256.721C45.2255 257.843 45.4126 258.966 45.0384 260.182C44.5707 261.398 44.2901 262.614 44.0094 263.83C42.8869 269.068 42.0451 274.307 43.3547 279.545C43.4482 280.106 43.4482 280.667 43.3547 281.229C42.7934 284.409 42.0451 287.496 41.4838 290.676C39.5195 300.966 37.5551 311.256 35.7778 321.545C34.9359 326.596 34.2811 331.741 33.8134 336.886C33.1586 343.902 32.878 350.917 32.9715 358.026C33.0651 362.329 33.2522 366.726 33.5328 371.029C33.7199 373.367 34.2811 375.706 34.4682 377.951C35.123 384.686 36.4326 391.327 36.9938 398.156C37.368 402.646 37.5551 407.136 36.8068 411.626C35.6843 417.799 35.4036 423.973 35.5907 430.24C35.6842 431.55 35.4972 432.766 35.0295 434.076C33.0651 439.595 31.9426 445.394 31.3813 451.1C29.3234 472.895 29.8847 494.69 31.3813 516.766C31.3813 516.766 32.0361 533.884 32.0361 537.813C32.0361 541.742 30.8201 547.261 29.0428 551.002C24.1786 561.666 15.4793 571.207 7.99597 580.374C4.06723 585.145 3.50598 584.397 1.63515 585.893C-0.142141 587.297 -0.422766 588.045 -1.35818 589.635C-2.2936 591.132 -1.73235 592.254 -1.73235 592.254C-2.85485 595.341 -0.70339 595.715 -0.70339 595.715C0.699732 598.241 2.94473 597.399 2.94473 597.399C6.12514 600.579 8.08951 598.054 8.08951 598.054C11.7376 602.263 15.4793 601.328 19.8757 597.586C24.1786 593.844 23.8045 595.435 26.143 594.499C36.2455 590.57 36.7132 580.562 45.5061 575.604C55.1409 570.178 57.573 564.285 56.4505 560.544C55.328 556.802 54.5796 551.377 54.5796 551.377C55.6086 550.722 55.9827 548.477 55.4215 546.325C53.5507 539.403 54.299 538.561 55.7021 524.156C57.76 511.06 59.6309 496.281 65.8046 484.962C68.0496 480.94 69.4527 476.263 70.014 471.492C70.3881 467.938 70.3881 464.383 70.2946 460.828C70.201 456.432 69.6398 452.035 69.0786 447.733C68.6109 444.459 68.1431 441.278 67.6754 438.098C67.5819 437.349 67.6754 436.788 68.1431 436.133C69.3592 434.356 70.1075 432.392 70.6688 430.334C71.7913 426.312 72.4461 422.196 72.4461 417.986C72.4461 415.741 72.5396 413.496 72.7267 411.251C72.9138 409.568 72.9138 407.79 73.7556 406.2C77.4038 399.185 80.3035 391.888 82.5485 384.311C84.7 377.015 86.3837 369.625 88.0675 362.142C88.9094 358.494 89.7512 354.752 90.5931 351.104C91.435 354.752 92.2769 358.494 93.1187 362.142C94.8025 369.532 96.3927 377.015 98.6377 384.311C100.883 391.888 103.782 399.185 107.431 406.2C108.272 407.79 108.366 409.568 108.46 411.251C108.647 413.496 108.74 415.741 108.74 417.986C108.74 422.196 109.395 426.312 110.517 430.334C111.079 432.392 111.827 434.356 113.043 436.133C113.511 436.788 113.604 437.349 113.511 438.098C113.043 441.278 112.575 444.552 112.108 447.733C111.453 452.035 110.985 456.432 110.892 460.828C110.798 464.383 110.798 467.938 111.172 471.492C111.733 476.263 113.137 480.94 115.382 484.962C121.555 496.281 123.333 511.06 125.484 524.156C126.887 538.468 127.542 539.31 125.765 546.325C125.203 548.477 125.578 550.628 126.607 551.377C126.607 551.377 125.952 556.802 124.736 560.544C123.613 564.285 126.045 570.178 135.68 575.604C144.379 580.562 144.847 590.477 155.043 594.499C157.382 595.435 157.008 593.844 161.31 597.586C165.613 601.328 169.449 602.263 173.097 598.054C173.097 598.054 174.968 600.579 178.241 597.399C178.241 597.399 180.486 598.241 181.89 595.715C181.89 595.715 184.041 595.341 182.919 592.254C182.919 592.254 183.48 591.132 182.544 589.635C181.515 588.045 181.328 587.297 179.551 585.893C177.68 584.397 177.119 585.145 173.19 580.374C165.707 571.114 157.008 561.573 151.956 551.19C150.179 547.541 148.963 541.929 148.963 538C148.963 534.071 149.618 516.953 149.618 516.953C151.114 494.877 151.676 473.176 149.618 451.287C149.057 445.581 148.028 439.782 145.97 434.263C145.502 433.047 145.315 431.737 145.408 430.427C145.595 424.16 145.315 417.986 144.192 411.813C143.444 407.323 143.631 402.833 144.005 398.343C144.567 391.608 145.876 384.873 146.531 378.138C146.812 375.799 147.373 373.461 147.466 371.216C147.747 366.913 147.934 362.516 148.028 358.213C148.215 351.198 147.934 344.089 147.186 337.073C146.718 331.928 146.063 326.783 145.221 321.732C143.444 311.443 141.48 301.153 139.515 290.864C138.954 287.683 138.206 284.596 137.644 281.416C137.551 280.855 137.551 280.293 137.644 279.732C138.954 274.4 138.019 269.162 136.99 264.017C136.709 262.801 136.428 261.585 135.961 260.369C135.493 259.153 135.68 258.03 135.961 256.908C136.241 255.318 136.709 253.728 136.803 252.137C136.99 248.022 137.083 243.999 137.177 239.883C137.27 236.609 137.083 233.242 137.27 229.968C137.457 227.068 137.925 224.168 138.206 221.269C138.767 216.124 139.328 210.886 139.796 205.741C139.796 205.46 139.796 205.086 139.889 204.805C140.451 203.402 140.986 190.409 141.548 189.006C141.19 191.28 142.228 201.625 142.322 202.093C143.163 205.834 144.192 209.482 145.596 213.131C146.812 216.498 148.215 219.866 149.992 223.046C150.647 224.168 150.74 225.197 150.74 226.413C150.647 228.378 150.74 230.436 150.74 232.4C150.834 234.084 151.021 235.674 151.021 237.358C150.834 243.812 151.956 249.986 153.827 256.16C156.727 265.888 159.72 275.616 162.714 285.345C164.023 289.46 165.613 293.483 167.11 297.505C167.484 298.627 167.578 299.563 167.204 300.779C166.175 303.959 165.894 307.233 165.8 310.601C165.613 314.062 165.894 317.523 166.175 320.984C166.268 321.826 166.175 322.761 166.268 323.603C166.455 326.222 166.362 328.935 166.923 331.554C168.045 336.044 167.578 340.534 167.484 345.024C167.484 346.895 167.391 348.766 167.391 350.637C167.391 351.291 167.671 351.946 167.765 352.694C168.045 352.694 168.233 352.694 168.326 352.788C169.916 352.975 169.916 353.069 170.478 351.572C170.945 350.543 171.319 349.514 171.881 348.204C172.161 350.262 172.442 352.133 172.723 353.91C172.816 354.285 172.816 354.659 173.003 355.033C173.284 355.688 174.032 356.249 174.593 356.155C175.342 356.062 175.903 355.594 176.09 354.752C176.277 353.443 176.464 352.133 176.464 350.73C176.558 346.895 176.558 343.153 176.558 339.412C176.558 339.037 176.651 338.757 176.745 338.383C177.025 340.534 177.306 342.685 177.68 344.837C178.335 348.672 178.803 352.507 180.019 356.155C180.206 356.623 180.393 357.091 180.767 357.465C181.235 358.026 181.89 358.213 182.638 357.746C182.919 357.559 183.199 357.559 183.48 357.372C183.948 353.91 183.948 350.543 183.76 347.082C183.667 344.276 183.48 341.469 183.293 338.57C183.199 337.447 183.199 336.325 183.106 335.202C183.106 335.015 183.106 334.734 183.386 334.454C183.48 334.734 183.667 335.015 183.76 335.296C184.883 339.786 185.912 344.276 187.034 348.766C187.689 351.198 188.625 353.536 190.495 355.314C190.776 355.594 191.057 355.968 191.618 355.781C192.179 355.594 192.553 355.22 192.553 354.659C192.553 353.443 192.553 352.227 192.553 351.011C192.366 347.924 192.086 344.837 191.805 341.75C191.431 338.196 190.963 334.641 190.589 331.086C190.495 330.619 190.495 330.151 190.495 329.683C190.589 329.683 190.683 329.59 190.776 329.59C191.057 329.964 191.337 330.338 191.618 330.712C192.553 331.741 193.582 332.677 194.518 333.612C196.201 335.109 198.166 335.109 200.224 334.641C201.253 334.173 201.627 333.331 200.972 332.115Z" fill="url(#paint0_linear_445_5595)"/>
<path fill-rule="evenodd" clip-rule="evenodd" d="M109.863 88.5327H70.8561C71.5109 90.6842 72.2592 91.7131 72.8205 92.3679C72.8205 92.3679 77.7782 98.4481 78.7136 99.4771C83.0165 104.622 84.7002 104.061 90.4063 104.061C96.0187 104.061 97.796 104.622 102.099 99.4771C102.941 98.4481 107.992 92.3679 107.992 92.3679C108.46 91.7131 109.208 90.5906 109.863 88.5327Z" fill="#F9C5AD"/>
<path fill-rule="evenodd" clip-rule="evenodd" d="M117.907 63.6511C117.346 63.5575 116.597 64.0253 116.036 64.5865C116.13 64.3994 116.223 64.1188 116.317 63.9317C116.784 62.248 117.439 60.5642 117.626 58.7869C119.778 40.827 106.963 27.9182 90.3122 27.8247C73.6618 27.8247 60.9402 40.827 62.9981 58.7869C63.1852 60.5642 63.84 62.248 64.3077 63.9317C64.4012 64.1188 64.4948 64.3994 64.5883 64.5865C63.9335 64.0253 63.1852 63.5575 62.7175 63.6511C60.3789 64.1188 60.6596 68.3282 60.7531 70.1054C60.7531 72.0698 61.0337 74.1277 62.2498 75.6244C62.811 76.2792 63.5594 76.934 64.0271 77.7759C64.4012 78.5242 64.5883 79.3661 65.1496 80.1144C65.9914 81.2369 67.4881 81.2369 67.4881 81.2369C67.5816 81.7981 67.6752 83.2948 67.8623 83.8561C68.6106 86.101 69.546 87.3171 70.2943 87.8783C70.2943 87.8783 76.0004 93.7714 77.0293 94.8004C81.987 99.7581 83.9514 99.2904 90.4993 99.2904C96.9537 99.2904 99.0116 99.7581 103.969 94.8004C104.998 93.7714 110.704 87.8783 110.704 87.8783C111.359 87.3171 112.294 86.101 113.136 83.8561C113.323 83.2948 113.417 81.8917 113.511 81.2369C113.511 81.2369 115.007 81.2369 115.849 80.1144C116.317 79.3661 116.504 78.6177 116.972 77.7759C117.346 76.934 118.094 76.2792 118.749 75.6244C119.965 74.1277 120.245 72.0698 120.245 70.1054C119.965 68.2346 120.245 64.0253 117.907 63.6511Z" fill="#FFE1C9"/>
<path fill-rule="evenodd" clip-rule="evenodd" d="M74.0363 123.331C80.9583 123.05 84.5129 129.598 84.5129 129.598C84.5129 129.598 80.0229 130.44 76.1877 126.885C72.0719 123.144 66.3659 129.224 47.0963 120.805C47.1899 120.805 59.3502 123.892 74.0363 123.331Z" fill="#F9C5AD"/>
<path fill-rule="evenodd" clip-rule="evenodd" d="M59.7586 197.322C51.3399 194.797 48.6272 191.803 47.1305 189.933C44.5113 186.752 41.0503 181.982 40.9568 174.685C40.3955 173.376 37.4957 168.231 37.4957 168.231C37.4957 168.231 38.5247 173.843 38.8053 180.953C39.6472 200.035 39.7262 191.65 39.7262 193.989L41.2374 205.18L42.1728 213.599C43.0147 211.821 42.2663 197.135 44.2307 195.732C46.2886 194.329 45.9145 197.603 49.9367 199.1C60.1328 200.035 63.5938 200.783 71.0771 198.538C71.2642 198.632 66.7742 198.351 59.7586 197.322Z" fill="#F9C5AD"/>
<path fill-rule="evenodd" clip-rule="evenodd" d="M119.964 197.322C128.383 194.797 131.096 191.803 132.592 189.933C135.212 186.752 138.673 181.982 138.766 174.685C139.327 173.376 142.227 168.231 142.227 168.231C142.227 168.231 141.198 173.843 140.918 180.953C140.076 200.035 139.923 196.2 139.923 198.538V204.712L138.988 214.066C138.146 212.289 137.457 197.135 135.492 195.732C133.434 194.329 133.809 197.603 129.786 199.1C119.59 200.035 116.129 200.783 108.646 198.538C108.459 198.632 112.949 198.351 119.964 197.322Z" fill="#F9C5AD"/>
<path fill-rule="evenodd" clip-rule="evenodd" d="M106.589 123.331C99.6665 123.05 96.1119 129.598 96.1119 129.598C96.1119 129.598 100.602 130.44 104.437 126.885C108.553 123.144 114.259 129.224 133.529 120.805C133.529 120.805 121.275 123.892 106.589 123.331Z" fill="#F9C5AD"/>
<circle cx="76.2168" cy="148.928" r="5.64303" fill="white"/>
<circle cx="90.5249" cy="172.997" r="5.64303" fill="white"/>
<path fill-rule="evenodd" clip-rule="evenodd" d="M87.9559 172.934C87.8978 173.864 88.3279 175.724 90.5133 175.724L90.5133 175.724C92.6943 175.721 93.1237 173.863 93.0656 172.934C93.0656 172.347 92.4874 170.584 91.9881 169.061C91.7751 168.412 91.5764 167.806 91.4431 167.354L90.5082 167.354L90.5082 167.354L89.5784 167.354C89.4451 167.806 89.2465 168.412 89.0334 169.061C88.5341 170.584 87.9559 172.347 87.9559 172.934Z" fill="#282A2E"/>
<path fill-rule="evenodd" clip-rule="evenodd" d="M90.5269 175.026C88.9486 175.026 88.6379 173.683 88.6799 173.011C88.6799 172.593 89.086 171.349 89.4431 170.26L91.6068 170.26C91.9639 171.349 92.37 172.593 92.37 173.011C92.4119 173.682 92.1018 175.024 90.5269 175.026L90.5269 175.026Z" fill="#D62F2F"/>
<path d="M89.6991 167.123L91.3265 167.123L91.1522 166.541L89.8735 166.541L89.6991 167.123Z" fill="#282A2E"/>
<path d="M90.0483 166.308L90.9783 166.308L90.8786 165.727L90.1479 165.727L90.0483 166.308Z" fill="#282A2E"/>
<path d="M91.5469 172.631L91.5204 174.103L91.3431 174.099L91.3668 172.784L90.6556 172.771L90.6584 172.615L91.5469 172.631Z" fill="white"/>
<path d="M90.1957 172.606L90.1692 174.078L89.9919 174.075L90.0156 172.759L89.3044 172.747L89.3072 172.59L90.1957 172.606Z" fill="white"/>
<circle cx="104.502" cy="148.928" r="5.64303" fill="white"/>
<path fill-rule="evenodd" clip-rule="evenodd" d="M103.168 146.82C103.944 146.305 105.77 145.747 106.863 147.64L106.862 147.64C107.952 149.531 106.557 150.832 105.723 151.247C105.215 151.54 103.399 151.921 101.831 152.25C101.162 152.39 100.538 152.521 100.08 152.632L99.6121 151.822L99.6125 151.822L99.1469 151.015C99.4716 150.674 99.897 150.199 100.353 149.69C101.422 148.496 102.66 147.113 103.168 146.82Z" fill="#282A2E"/>
<path fill-rule="evenodd" clip-rule="evenodd" d="M106.25 147.975C107.039 149.342 106.031 150.282 105.428 150.582C105.066 150.791 103.786 151.061 102.664 151.297L101.582 149.422C102.346 148.569 103.221 147.595 103.583 147.386C104.143 147.014 105.46 146.612 106.249 147.975L106.25 147.975Z" fill="black"/>
<path d="M99.8179 152.643L99.0042 151.233L98.588 151.675L99.2273 152.782L99.8179 152.643Z" fill="#282A2E"/>
<path d="M98.938 152.747L98.473 151.942L98.0195 152.319L98.3848 152.952L98.938 152.747Z" fill="#282A2E"/>
<path d="M105.574 149.147L104.165 149.39L104.066 149.217L105.625 148.973L105.689 149.085L105.574 149.147ZM104.611 150.169L105.535 149.078L105.647 149.01L105.71 149.122L104.71 150.344L104.611 150.169ZM105.072 149.877L104.933 149.956L104.522 149.237L104.661 149.157L105.072 149.877Z" fill="white"/>
<path d="M103.472 148.224L104.773 147.481L104.853 147.621L103.679 148.293L104.001 148.856L103.875 148.928L103.472 148.224Z" fill="white"/>
<path fill-rule="evenodd" clip-rule="evenodd" d="M75.2978 151.246C74.4633 150.831 73.0676 149.529 74.1603 147.636L74.1604 147.636C75.2534 145.748 77.0774 146.305 77.8533 146.82C78.3614 147.113 79.5992 148.496 80.6681 149.689C81.1242 150.199 81.5495 150.674 81.8743 151.015L81.4068 151.825L81.4067 151.825L80.9413 152.631C80.4832 152.52 79.8592 152.39 79.1901 152.249C77.6219 151.92 75.8058 151.539 75.2978 151.246Z" fill="#282A2E"/>
<path fill-rule="evenodd" clip-rule="evenodd" d="M74.7577 147.997C73.9685 149.364 74.9765 150.305 75.5792 150.604C75.9411 150.813 77.2219 151.083 78.3436 151.319L79.425 149.445C78.6604 148.592 77.7858 147.618 77.4239 147.409C76.8638 147.037 75.5472 146.635 74.7577 147.997L74.7577 147.997Z" fill="white"/>
<path d="M82.015 151.237L81.2013 152.646L81.7918 152.786L82.4312 151.679L82.015 151.237Z" fill="#282A2E"/>
<path d="M82.5451 151.947L82.0801 152.752L82.6333 152.956L82.9986 152.323L82.5451 151.947Z" fill="#282A2E"/>
<path d="M75.0288 149.621L75.275 149.194C75.3309 149.097 75.3928 149.024 75.4608 148.975C75.5291 148.924 75.6022 148.899 75.6801 148.897C75.7578 148.895 75.8385 148.918 75.9222 148.966C75.9812 149 76.0282 149.043 76.0632 149.096C76.098 149.147 76.1195 149.205 76.1278 149.27C76.1359 149.334 76.1303 149.401 76.1111 149.473L76.1021 149.531L75.8707 149.932L75.7307 149.854L75.9054 149.551C75.9409 149.49 75.9597 149.433 75.962 149.38C75.9636 149.326 75.9521 149.279 75.9275 149.237C75.9028 149.195 75.8684 149.162 75.8242 149.136C75.7746 149.107 75.7256 149.092 75.6772 149.09C75.6288 149.088 75.5825 149.102 75.5383 149.133C75.4938 149.162 75.4526 149.209 75.4148 149.275L75.2672 149.531L76.4157 150.194L76.3171 150.364L75.0288 149.621ZM76.7518 149.611L75.987 149.587L76.0888 149.409L76.8464 149.423L76.8571 149.429L76.7518 149.611Z" fill="#282A2E"/>
<path d="M76.1874 147.877L77.1154 148.982L77.0147 149.156L76.01 147.921L76.0748 147.809L76.1874 147.877ZM77.568 148.198L76.1471 147.947L76.0314 147.884L76.0963 147.772L77.6691 148.022L77.568 148.198ZM77.0783 147.944L77.2181 148.025L76.8002 148.749L76.6604 148.668L77.0783 147.944Z" fill="#282A2E"/>
<path d="M99.2282 156.941C99.2282 161.756 95.3253 165.659 90.5108 165.659C85.6962 165.659 81.7933 161.756 81.7933 156.941C81.7933 152.127 85.6963 148.224 90.5108 148.224C95.3253 148.224 99.2282 152.127 99.2282 156.941Z" fill="#F5F6FA" stroke="#C0C5D1" stroke-width="0.511669"/>
<path d="M90.5105 164.028C94.4241 164.028 97.5966 160.855 97.5966 156.942C97.5966 153.028 94.4241 149.855 90.5105 149.855C86.597 149.855 83.4244 153.028 83.4244 156.942C83.4244 160.855 86.597 164.028 90.5105 164.028Z" fill="#C0C5D1"/>
<path d="M90.5102 159.79C92.0836 159.79 93.359 158.514 93.359 156.941C93.359 155.368 92.0836 154.092 90.5102 154.092C88.9368 154.092 87.6614 155.368 87.6614 156.941C87.6614 158.514 88.9368 159.79 90.5102 159.79Z" fill="white"/>
<path fill-rule="evenodd" clip-rule="evenodd" d="M292.551 70.3325C293.078 69.8064 293.782 69.368 294.31 69.4557C296.067 69.7359 296.252 72.3101 296.389 74.2284C296.424 74.7115 296.456 75.153 296.509 75.5057C296.509 77.3471 296.245 79.2761 295.102 80.679C295.014 80.7661 294.925 80.8533 294.835 80.941C294.293 81.4706 293.732 82.0186 293.43 82.6957C293.227 83.0603 293.08 83.4062 292.938 83.742C292.772 84.133 292.611 84.5104 292.375 84.8877C291.817 85.6285 290.955 85.8477 290.493 85.9126V90.2033C288.083 98.7394 282.641 101.739 274.088 104.967C273.203 105.299 270.653 105.631 269.653 105.631C269.505 105.631 269.356 105.631 269.207 105.623H269.198H269.189H269.18H269.172H269.163H269.154C269.078 105.623 269.003 105.625 268.928 105.627C268.856 105.629 268.785 105.631 268.716 105.631C267.717 105.631 265.167 105.299 264.281 104.967C255.496 101.657 249.989 98.5854 247.68 89.5173C247.532 89.1781 247.389 88.8048 247.252 88.395C247.136 88.0478 247.058 87.3189 246.993 86.712C246.96 86.3992 246.93 86.1188 246.9 85.9399C246.9 85.9399 245.493 85.9399 244.701 84.8877C244.359 84.4337 244.165 83.9429 243.975 83.4629C243.872 83.2014 243.769 82.9431 243.645 82.6957C243.333 82.1359 242.889 81.6644 242.468 81.2185C242.296 81.0358 242.128 80.8574 241.974 80.679C240.831 79.2761 240.567 77.3471 240.567 75.5057C240.565 75.4672 240.563 75.4275 240.56 75.3866C240.468 73.6592 240.266 69.884 242.414 69.4557C242.854 69.368 243.557 69.8064 244.173 70.3325C244.129 70.2448 244.085 70.1352 244.041 70.0256C243.997 69.916 243.953 69.8064 243.909 69.7187C243.789 69.2868 243.655 68.8549 243.521 68.4212C243.165 67.2701 242.806 66.1063 242.678 64.8962C240.743 48.0613 252.705 35.8735 268.362 35.8735C284.019 35.9612 296.069 48.0613 294.046 64.8962C293.918 66.1063 293.558 67.2701 293.203 68.4212C293.069 68.8549 292.935 69.2868 292.815 69.7187C292.771 69.8064 292.727 69.916 292.683 70.0256C292.639 70.1352 292.595 70.2448 292.551 70.3325Z" fill="#FFE1C9"/>
<path fill-rule="evenodd" clip-rule="evenodd" d="M255.623 100.917C256.377 113.013 257.533 125.117 225.275 136.723C201.85 138.578 206.389 155.851 205.732 170.903C204.856 191.01 206.784 211.161 206.1 231.268C205.925 236.489 204.277 247.299 201.631 254.856C198.178 264.73 198.765 274.797 199.028 285.318C199.326 297.265 198.528 309.221 198.283 321.168C196.425 330.885 193.367 341.021 191.5 350.747C191.982 355.925 194.637 359.336 196.232 362.965C199.335 365.563 202.437 368.169 205.539 370.767C206.906 372.131 208.265 373.487 209.632 374.851C210.237 373.425 210.342 372.079 208.703 369.84C207.003 367.504 205.723 364.889 204.234 362.414C204.05 359.134 203.865 355.855 203.673 352.566C203.892 348.744 205.233 345.569 206.652 347.179C208.3 349.042 207.432 351.473 208.247 353.826C206.328 358.076 206.346 362.047 207.958 364.085C209.632 360.429 211.306 356.782 212.98 353.126C212.541 347.983 211.744 342.438 210.762 337.374C209.991 333.395 207.967 329.853 208.344 325.2C208.922 318.072 209.763 312.011 211.297 305.023C214.916 288.537 225.205 270.214 223.207 255.8C220.709 237.74 225.538 212.088 225.441 193.021C227.737 205.966 229.972 218.91 232.33 231.845C234.1 241.571 234.389 251.13 230.095 259.893C218.501 283.578 212.752 307.743 215.95 331.961C218.404 350.511 223.119 372.831 227.343 393.891H267.033C267.585 372.175 267.445 348.237 265.947 329.022C266.972 329.319 268.278 329.398 269.452 329.407H269.487H269.531C270.705 329.407 272.002 329.319 273.036 329.022C271.538 348.237 271.389 372.183 271.95 393.891H311.64C315.872 372.831 320.578 350.511 323.032 331.961C326.231 307.743 320.473 283.578 308.888 259.893C304.603 251.13 304.883 241.571 306.653 231.845C309.002 218.918 311.245 205.966 313.541 193.021C313.445 212.088 318.274 237.749 315.776 255.8C313.787 270.214 324.066 288.537 327.686 305.023C329.219 312.011 330.061 318.072 330.639 325.2C331.016 329.853 328.992 333.404 328.22 337.374C327.239 342.438 326.441 347.983 326.003 353.126C327.677 356.782 329.351 360.429 331.025 364.085C332.646 362.047 332.655 358.076 330.735 353.826C331.542 351.473 330.683 349.05 332.33 347.179C333.75 345.569 335.091 348.744 335.31 352.566C335.126 355.846 334.942 359.126 334.749 362.414C333.259 364.889 331.98 367.504 330.28 369.84C328.641 372.087 328.746 373.434 329.351 374.851C330.718 373.487 332.076 372.131 333.443 370.767C336.546 368.169 339.648 365.563 342.75 362.965C344.345 359.336 347.001 355.925 347.483 350.747C345.625 341.03 342.566 330.894 340.7 321.168C340.454 309.221 339.657 297.265 339.955 285.318C340.218 274.805 340.805 264.73 337.352 254.856C334.705 247.299 333.058 236.489 332.883 231.268C332.208 211.161 334.127 191.001 333.251 170.903C332.593 155.86 337.133 138.578 313.708 136.723C281.046 124.969 282.641 112.716 283.386 100.462C280.853 102.229 277.742 103.576 274.062 104.967C273.176 105.299 270.626 105.631 269.627 105.631C269.478 105.631 269.329 105.631 269.18 105.623H269.171H269.163H269.154H269.145H269.136H269.154C269.005 105.623 268.856 105.631 268.716 105.631C267.717 105.631 265.167 105.299 264.281 104.967C260.907 103.698 258.033 102.465 255.623 100.917Z" fill="url(#paint1_linear_445_5595)"/>
<path fill-rule="evenodd" clip-rule="evenodd" d="M255.623 100.917C257.884 105.395 265.105 111.867 269.575 111.789H269.583H269.592H269.601H269.61H269.618H269.627C269.776 111.789 269.925 111.797 270.074 111.797C276.095 111.797 280.047 107.171 283.404 100.471C280.871 102.238 277.76 103.585 274.079 104.975C273.194 105.308 270.644 105.64 269.645 105.64C269.496 105.64 269.347 105.64 269.198 105.631H269.189H269.18H269.171H269.163H269.154C269.005 105.631 268.856 105.64 268.716 105.64C267.717 105.64 265.167 105.308 264.281 104.975C260.907 103.698 258.033 102.465 255.623 100.917Z" fill="#F9C5AD"/>
<path d="M228.173 170.874C225.383 173.131 223.651 181.315 225.08 188.777C225.137 189.096 225.452 189.305 225.771 189.249C226.091 189.192 226.301 188.877 226.244 188.559C225.193 183.03 226.816 173.642 228.173 170.874Z" fill="#F9C5AD"/>
<path d="M312 170.874C314.79 173.131 316.522 181.315 315.092 188.777C315.036 189.096 314.721 189.305 314.401 189.249C314.082 189.192 313.872 188.877 313.929 188.559C314.98 183.03 313.357 173.642 312 170.874Z" fill="#F9C5AD"/>
<path d="M229.727 138.053C229.402 138.044 228.211 137.633 228.219 137.301C228.228 136.977 229.429 136.863 229.753 136.872C240.9 136.627 245.378 137.939 254.703 139.085C255.027 139.129 260.189 139.846 260.145 140.169C260.092 140.712 234.301 137.546 229.727 138.053Z" fill="#F9C5AD" stroke="#F9C5AD" stroke-width="0.5"/>
<path d="M264.299 141.849C263.913 141.184 264.343 139.741 265.324 141.254C267.235 143.913 269.846 145.312 272.843 143.327C273.027 143.056 273.396 142.995 273.667 143.178C273.325 143.659 268.952 149.834 264.299 141.849Z" fill="#F9C5AD" stroke="#F9C5AD" stroke-width="0.3"/>
<path d="M305.803 138.053C306.127 138.044 307.319 137.633 307.31 137.301C307.302 136.977 306.101 136.863 305.777 136.872C294.63 136.627 290.151 137.939 280.827 139.085C280.503 139.129 275.341 139.846 275.385 140.169C275.437 140.712 301.229 137.546 305.803 138.053Z" fill="#F9C5AD" stroke="#F9C5AD" stroke-width="0.5"/>
<path fill-rule="evenodd" clip-rule="evenodd" d="M226.025 175.374C222.48 179.374 223.393 201.208 231.812 207.647C240.994 214.67 262.995 203.206 270.082 199.053L270.082 199.053C277.014 203.206 298.537 214.67 307.519 207.647C315.755 201.208 316.537 179.874 314.645 175.874C312.753 171.874 278.891 179.387 270.082 181.83L270.082 181.83C261.076 179.387 229.57 171.374 226.025 175.374Z" fill="#E2CEC2"/>
<circle cx="254.77" cy="154.191" r="5.64303" fill="white"/>
<circle cx="269.078" cy="178.26" r="5.64303" fill="white"/>
<path fill-rule="evenodd" clip-rule="evenodd" d="M266.509 178.196C266.451 179.126 266.881 180.986 269.067 180.986L269.067 180.986C271.248 180.983 271.677 179.126 271.619 178.196C271.619 177.61 271.041 175.847 270.541 174.324C270.328 173.674 270.13 173.068 269.996 172.617L269.061 172.617L269.061 172.617L268.132 172.617C267.998 173.069 267.8 173.674 267.587 174.324C267.087 175.847 266.509 177.61 266.509 178.196Z" fill="#282A2E"/>
<path fill-rule="evenodd" clip-rule="evenodd" d="M269.08 180.289C267.502 180.289 267.191 178.945 267.233 178.274C267.233 177.856 267.639 176.612 267.996 175.523L270.16 175.523C270.517 176.612 270.923 177.856 270.923 178.274C270.965 178.945 270.655 180.286 269.08 180.288L269.08 180.289Z" fill="#D62F2F"/>
<path d="M268.252 172.385L269.88 172.385L269.705 171.804L268.427 171.804L268.252 172.385Z" fill="#282A2E"/>
<path d="M268.602 171.571L269.531 171.571L269.432 170.99L268.701 170.99L268.602 171.571Z" fill="#282A2E"/>
<path d="M270.1 177.893L270.074 179.365L269.896 179.362L269.92 178.046L269.209 178.034L269.212 177.877L270.1 177.893Z" fill="white"/>
<path d="M268.749 177.869L268.722 179.341L268.545 179.338L268.569 178.022L267.858 178.009L267.86 177.853L268.749 177.869Z" fill="white"/>
<circle cx="283.056" cy="154.191" r="5.64303" fill="white"/>
<path fill-rule="evenodd" clip-rule="evenodd" d="M281.721 152.083C282.497 151.568 284.323 151.01 285.416 152.903L285.416 152.903C286.505 154.794 285.11 156.095 284.276 156.509C283.768 156.803 281.952 157.184 280.384 157.512C279.715 157.653 279.091 157.784 278.633 157.894L278.165 157.085L278.166 157.084L277.7 156.278C278.025 155.936 278.45 155.462 278.906 154.952C279.975 153.759 281.213 152.376 281.721 152.083Z" fill="#282A2E"/>
<path fill-rule="evenodd" clip-rule="evenodd" d="M284.803 153.238C285.592 154.604 284.584 155.545 283.982 155.845C283.62 156.054 282.339 156.324 281.217 156.559L280.135 154.685C280.899 153.831 281.774 152.857 282.136 152.648C282.696 152.277 284.013 151.874 284.803 153.238L284.803 153.238Z" fill="black"/>
<path d="M278.371 157.906L277.557 156.496L277.141 156.938L277.781 158.045L278.371 157.906Z" fill="#282A2E"/>
<path d="M277.491 158.01L277.026 157.205L276.573 157.581L276.938 158.214L277.491 158.01Z" fill="#282A2E"/>
<path d="M284.128 154.41L282.719 154.653L282.62 154.48L284.179 154.236L284.243 154.348L284.128 154.41ZM283.164 155.432L284.088 154.34L284.2 154.273L284.264 154.385L283.263 155.606L283.164 155.432ZM283.625 155.139L283.486 155.219L283.075 154.499L283.214 154.42L283.625 155.139Z" fill="white"/>
<path d="M282.025 153.487L283.326 152.744L283.406 152.884L282.232 153.555L282.554 154.119L282.428 154.191L282.025 153.487Z" fill="white"/>
<path fill-rule="evenodd" clip-rule="evenodd" d="M253.851 156.509C253.017 156.094 251.621 154.792 252.714 152.899L252.714 152.899C253.807 151.011 255.631 151.568 256.407 152.083C256.915 152.376 258.152 153.758 259.221 154.952C259.677 155.461 260.103 155.936 260.428 156.278L259.96 157.087L259.96 157.087L259.494 157.894C259.036 157.783 258.412 157.652 257.743 157.512C256.175 157.183 254.359 156.802 253.851 156.509Z" fill="#282A2E"/>
<path fill-rule="evenodd" clip-rule="evenodd" d="M253.311 153.26C252.522 154.627 253.53 155.567 254.132 155.867C254.494 156.076 255.775 156.346 256.897 156.581L257.978 154.708C257.214 153.854 256.339 152.88 255.977 152.671C255.417 152.3 254.1 151.897 253.311 153.26L253.311 153.26Z" fill="white"/>
<path d="M260.568 156.5L259.755 157.909L260.345 158.049L260.984 156.941L260.568 156.5Z" fill="#282A2E"/>
<path d="M261.098 157.209L260.633 158.015L261.186 158.219L261.552 157.586L261.098 157.209Z" fill="#282A2E"/>
<path d="M253.582 154.883L253.828 154.457C253.884 154.36 253.946 154.287 254.014 154.237C254.082 154.187 254.155 154.161 254.233 154.16C254.311 154.157 254.392 154.18 254.475 154.229C254.534 154.263 254.581 154.306 254.616 154.359C254.651 154.41 254.673 154.468 254.681 154.533C254.689 154.596 254.684 154.664 254.664 154.735L254.655 154.794L254.424 155.195L254.284 155.116L254.459 154.814C254.494 154.752 254.513 154.695 254.515 154.642C254.517 154.589 254.505 154.541 254.481 154.5C254.456 154.458 254.422 154.424 254.377 154.399C254.328 154.37 254.279 154.355 254.23 154.353C254.182 154.351 254.136 154.365 254.091 154.395C254.047 154.425 254.006 154.472 253.968 154.538L253.82 154.793L254.969 155.456L254.87 155.627L253.582 154.883ZM255.305 154.874L254.54 154.85L254.642 154.672L255.4 154.686L255.41 154.692L255.305 154.874Z" fill="#282A2E"/>
<path d="M254.741 153.14L255.669 154.244L255.568 154.419L254.563 153.184L254.628 153.071L254.741 153.14ZM256.121 153.46L254.7 153.21L254.585 153.147L254.65 153.034L256.222 153.285L256.121 153.46ZM255.632 153.207L255.771 153.288L255.353 154.012L255.214 153.931L255.632 153.207Z" fill="#282A2E"/>
<path d="M277.781 162.204C277.781 167.018 273.879 170.921 269.064 170.921C264.249 170.921 260.347 167.018 260.347 162.204C260.347 157.389 264.249 153.486 269.064 153.486C273.879 153.486 277.781 157.389 277.781 162.204Z" fill="#F5F6FA" stroke="#C0C5D1" stroke-width="0.511669"/>
<path d="M269.064 169.29C272.977 169.29 276.15 166.118 276.15 162.204C276.15 158.291 272.977 155.118 269.064 155.118C265.15 155.118 261.978 158.291 261.978 162.204C261.978 166.118 265.15 169.29 269.064 169.29Z" fill="#C0C5D1"/>
<path d="M269.063 165.053C270.637 165.053 271.912 163.777 271.912 162.204C271.912 160.63 270.637 159.355 269.063 159.355C267.49 159.355 266.215 160.63 266.215 162.204C266.215 163.777 267.49 165.053 269.063 165.053Z" fill="white"/>
</g>
<defs>
<linearGradient id="paint0_linear_445_5595" x1="90.399" y1="87.0366" x2="90.399" y2="600.825" gradientUnits="userSpaceOnUse">
<stop stop-color="#FFE1C9"/>
<stop offset="0.254556" stop-color="#FFE5D0"/>
<stop offset="0.379121" stop-color="#FFE1C9" stop-opacity="0"/>
</linearGradient>
<linearGradient id="paint1_linear_445_5595" x1="269.491" y1="100.462" x2="269.491" y2="393.891" gradientUnits="userSpaceOnUse">
<stop stop-color="#FFE1C9"/>
<stop offset="0.403543" stop-color="#FFE5D0"/>
<stop offset="1" stop-color="#FFE1C9" stop-opacity="0"/>
</linearGradient>
<clipPath id="clip0_445_5595">
<rect width="343" height="245" fill="white" transform="translate(0.00012207 0.824707)"/>
</clipPath>
</defs>
</svg>
