<svg width="124" height="21" viewBox="0 0 124 21" fill="none" xmlns="http://www.w3.org/2000/svg">
<g clip-path="url(#clip0_972_1567)">
<path d="M0.0515137 13.032C0.0515137 8.88325 3.09393 5.84082 7.40402 5.84082C11.7141 5.84082 14.7565 8.88325 14.7565 13.032C14.7565 17.1808 11.7141 20.2232 7.40402 20.2232C3.09393 20.2232 0.0515137 17.1808 0.0515137 13.032ZM12.8665 13.032C12.8665 9.87435 10.6539 7.56948 7.40402 7.56948C4.15416 7.56948 1.9415 9.8974 1.9415 13.032C1.9415 16.1667 4.15416 18.4946 7.40402 18.4946C10.6539 18.4946 12.8665 16.1667 12.8665 13.032Z" fill="#2A56BD"/>
<path d="M16.37 13.032C16.37 8.88325 19.4124 5.84082 23.7225 5.84082C27.272 5.84082 29.9456 7.89216 30.7523 10.9346H28.8623C28.1248 8.88325 26.2117 7.56948 23.7225 7.56948C20.4496 7.56948 18.26 9.8974 18.26 13.032C18.26 16.1667 20.4726 18.4946 23.7225 18.4946C26.2117 18.4946 28.1248 17.1577 28.8623 15.1295H30.7523C29.9456 18.1719 27.272 20.2232 23.7225 20.2232C19.4124 20.2232 16.37 17.1808 16.37 13.032Z" fill="#2A56BD"/>
<path d="M32.9649 14.8296V1.36914H34.8088V6.20937H42.8528V7.89193H34.8088V14.8296C34.8088 17.3189 36.1917 18.4943 38.3122 18.4943C40.4327 18.4943 41.8156 17.3419 41.8156 14.8296V14.53H43.6134V14.8296C43.6134 18.4252 41.4468 20.223 38.3122 20.223C35.1776 20.223 32.9419 18.4252 32.9419 14.8296H32.9649Z" fill="#2A56BD"/>
<path d="M45.4114 13.032C45.4114 8.88325 48.4538 5.84082 52.7639 5.84082C57.074 5.84082 60.1164 8.88325 60.1164 13.032C60.1164 17.1808 57.074 20.2232 52.7639 20.2232C48.4538 20.2232 45.4114 17.1808 45.4114 13.032ZM58.2264 13.032C58.2264 9.87435 56.0137 7.56948 52.7639 7.56948C49.514 7.56948 47.3014 9.8974 47.3014 13.032C47.3014 16.1667 49.514 18.4946 52.7639 18.4946C56.0137 18.4946 58.2264 16.1667 58.2264 13.032Z" fill="#2A56BD"/>
<path d="M62.283 12.9165V0.239746H65.5789V8.19156C66.547 6.67034 68.1834 5.84059 70.1425 5.84059C73.4615 5.84059 76.9419 8.21461 76.9419 12.8935C76.9419 17.2267 73.8995 20.223 69.5663 20.223C65.2332 20.223 62.306 17.3419 62.306 12.9165H62.283ZM73.6229 13.0318C73.6229 10.6347 71.9864 8.90607 69.5894 8.90607C67.1923 8.90607 65.5789 10.6117 65.5789 13.0318C65.5789 15.4519 67.1923 17.1575 69.5894 17.1575C71.9864 17.1575 73.6229 15.4519 73.6229 13.0318Z" fill="#2A56BD"/>
<path d="M78.5554 13.032C78.5554 8.88325 81.5978 5.84082 85.9079 5.84082C90.218 5.84082 93.2143 8.88325 93.2143 13.032V14.1845H82.0127C82.4506 16.1667 83.9718 17.2269 85.9079 17.2269C87.383 17.2269 88.4433 16.812 89.1347 15.9362H92.6381C91.624 18.5407 89.1347 20.2232 85.8849 20.2232C81.5748 20.2232 78.5323 17.1808 78.5323 13.032H78.5554ZM89.734 11.5569C89.2039 9.73606 87.7057 8.81411 85.9079 8.81411C84.1101 8.81411 82.612 9.7591 82.0818 11.5569H89.7109H89.734Z" fill="#2A56BD"/>
<path d="M94.8043 13.1703C94.8043 8.83716 97.8467 5.84082 102.18 5.84082C106.513 5.84082 109.44 8.74496 109.44 13.1473V19.8544H106.421V17.1808C105.591 19.2091 103.747 20.2232 101.581 20.2232C98.2616 20.2232 94.7812 17.8492 94.7812 13.1703H94.8043ZM106.167 13.032C106.167 10.635 104.554 8.9063 102.157 8.9063C99.7597 8.9063 98.1233 10.6119 98.1233 13.032C98.1233 15.4521 99.7597 17.1577 102.157 17.1577C104.554 17.1577 106.167 15.4521 106.167 13.032Z" fill="#2A56BD"/>
<path d="M112.183 14.6222V1.36914H115.479V6.20937H122.532V9.18266H115.479V14.5991C115.479 16.42 116.424 17.1345 117.784 17.1345C119.144 17.1345 120.089 16.443 120.089 14.5991V14.2303H123.385V14.5991C123.385 18.3791 121.126 20.2 117.807 20.2C114.488 20.2 112.229 18.3791 112.229 14.5991L112.183 14.6222Z" fill="#2A56BD"/>
</g>
<defs>
<clipPath id="clip0_972_1567">
<rect width="123.333" height="20" fill="white" transform="translate(0 0.231445)"/>
</clipPath>
</defs>
</svg>
