<svg width="343" height="245" viewBox="0 0 343 245" fill="none" xmlns="http://www.w3.org/2000/svg">
<g clip-path="url(#clip0_480_5384)">
<path fill-rule="evenodd" clip-rule="evenodd" d="M313.084 404.256C311.652 401.869 310.22 399.362 308.907 396.856C307.714 394.588 307.117 392.082 306.52 389.575C305.446 385.04 304.372 380.624 303.178 376.208C302.701 374.537 301.746 373.343 300.672 372.031C298.046 368.927 295.659 365.585 293.033 362.602C291.124 360.334 290.527 357.708 290.407 354.724C290.288 350.905 289.691 347.205 289.453 343.505C288.975 337.776 288.498 332.047 288.14 326.199C287.901 321.544 287.782 316.889 287.543 312.235C287.065 302.09 286.349 291.945 284.32 281.919C283.246 276.787 281.695 271.774 279.666 266.88C279.308 265.926 279.069 264.971 279.188 263.777C280.62 254.706 279.904 245.636 278.353 236.565C276.443 225.107 273.34 213.888 269.759 202.907C269.043 200.759 269.282 198.611 269.759 196.462C270.117 194.314 270.475 192.165 270.356 190.017C270.356 189.659 270.356 189.301 270.356 189.062C272.146 176.888 267.73 164.834 261.882 154.331C256.989 145.498 250.424 141.202 243.024 136.905C240.876 135.592 238.131 135.234 235.744 134.399C234.669 134.04 233.476 133.921 232.282 133.682C229.537 133.205 227.031 131.892 224.524 130.46C219.631 127.595 214.857 124.85 209.963 122.105C206.383 120.196 202.683 118.405 199.102 116.615C198.864 116.496 198.744 116.376 198.506 116.376C196.238 115.302 195.283 114.586 195.522 112.318C195.76 110.528 197.193 95.9669 197.551 91.6701C197.551 91.6701 197.551 91.6701 197.551 91.5508C191.822 94.5346 176.664 101.696 172.009 102.531C167.354 101.696 152.196 94.5346 146.468 91.5508C146.468 91.5508 146.468 91.5508 146.468 91.6701C146.826 95.8475 148.258 110.528 148.497 112.318C148.735 114.586 147.78 115.302 145.513 116.376C145.274 116.496 145.035 116.615 144.916 116.615C141.335 118.405 137.635 120.076 134.055 122.105C129.161 124.731 124.268 127.595 119.494 130.46C116.987 131.892 114.481 133.205 111.736 133.682C110.542 133.921 109.349 134.04 108.275 134.399C105.768 135.115 103.142 135.592 100.994 136.905C93.5941 141.202 87.0297 145.498 82.1362 154.331C76.2879 164.834 71.9912 176.888 73.6622 189.062C73.6622 189.42 73.6622 189.778 73.6622 190.017C73.4235 192.165 73.7815 194.314 74.2589 196.462C74.617 198.611 74.8557 200.759 74.2589 202.907C70.6783 213.888 67.5752 225.226 65.6655 236.565C64.1139 245.516 63.5172 254.587 64.83 263.777C64.9494 264.851 64.83 265.806 64.3526 266.88C62.3236 271.774 60.772 276.787 59.6979 281.919C57.6688 291.945 56.9527 301.97 56.4753 312.235C56.2366 316.889 56.1173 321.544 55.8786 326.199C55.5205 331.928 55.0431 337.657 54.5657 343.505C54.2076 347.324 53.7302 351.024 53.6108 354.724C53.4915 357.708 52.8947 360.215 50.9851 362.602C48.3593 365.705 45.9722 368.927 43.3465 372.031C42.2723 373.343 41.1981 374.656 40.8401 376.208C39.6465 380.624 38.5724 385.159 37.4982 389.575C36.9014 392.082 36.424 394.588 35.1111 396.856C33.7982 399.362 32.366 401.749 30.9338 404.256C30.0983 405.688 30.4563 406.882 32.1273 407.24C34.7531 407.837 37.2595 407.837 39.4078 405.927C40.7207 404.733 41.9142 403.42 43.1078 402.227C43.4658 401.749 43.8239 401.272 44.182 400.795C44.3013 400.795 44.4207 400.914 44.54 400.914C44.54 401.511 44.4207 402.108 44.4207 402.704C43.9432 407.24 43.3465 411.775 42.8691 416.311C42.511 420.249 42.1529 424.188 41.9142 428.126C41.7949 429.678 41.7949 431.23 41.9142 432.781C41.9142 433.497 42.3917 433.975 43.1078 434.214C43.7045 434.452 44.0626 433.975 44.54 433.617C47.0464 431.349 48.24 428.365 48.9561 425.262C50.3883 419.533 51.7012 413.804 53.1334 408.075C53.2528 407.717 53.4915 407.359 53.6108 407.001C53.9689 407.359 54.0883 407.717 53.9689 407.956C53.9689 409.388 53.8496 410.82 53.7302 412.253C53.6108 415.833 53.3721 419.414 53.1334 423.114C52.8947 427.53 52.8947 431.826 53.4915 436.242C53.8496 436.362 54.327 436.481 54.5657 436.72C55.5205 437.317 56.2366 437.078 56.9527 436.362C57.3108 435.884 57.6688 435.288 57.9076 434.691C59.4591 430.036 60.0559 425.023 60.8914 420.249C61.3688 417.504 61.7269 414.759 62.0849 412.014C62.2043 412.491 62.3236 412.849 62.3236 413.327C62.3236 418.101 62.3236 422.994 62.443 427.768C62.443 429.439 62.6817 431.23 62.9204 432.901C63.0397 433.975 63.7559 434.572 64.83 434.691C65.5462 434.81 66.501 434.094 66.859 433.259C67.0977 432.781 67.0977 432.304 67.2171 431.826C67.5752 429.559 67.9332 427.172 68.2913 424.546C69.0074 426.217 69.4848 427.53 70.0816 428.843C70.917 430.633 70.917 430.633 72.8267 430.394C73.0654 430.394 73.1848 430.394 73.5428 430.275C73.7815 429.439 74.0202 428.485 74.0202 427.649C74.0202 425.262 73.9009 422.875 73.9009 420.488C73.9009 414.759 73.1848 409.03 74.617 403.301C75.4525 400.079 75.2138 396.617 75.4525 393.156C75.5718 392.082 75.4525 390.888 75.5718 389.814C76.0492 385.398 76.2879 380.982 76.0492 376.566C75.9299 372.389 75.5718 368.092 74.2589 364.034C73.7815 362.482 73.7815 361.289 74.3783 359.857C76.2879 354.724 78.3169 349.592 79.9879 344.341C83.9265 331.928 87.6265 319.515 91.3264 307.102C93.7135 299.345 95.1457 291.348 94.907 283.113C94.7877 281.084 95.1457 278.935 95.2651 276.787C95.3844 274.28 95.3844 271.655 95.2651 269.148C95.2651 267.597 95.3844 266.284 96.2199 264.851C98.4876 260.793 100.159 256.616 101.829 252.2C103.5 247.665 104.813 242.891 106.007 238.116C106.126 237.52 105.938 222.134 106.654 221.657C107.489 223.447 108.394 239.907 109.11 241.578C109.229 241.936 109.229 242.294 109.229 242.771C109.946 249.336 110.542 256.019 111.258 262.584C111.616 266.284 112.333 269.984 112.452 273.684C112.691 277.861 112.571 282.158 112.571 286.335C112.691 291.587 112.81 296.719 113.049 301.97C113.168 303.999 113.645 306.028 114.123 308.057C114.362 309.49 114.6 310.922 114.123 312.473C113.526 314.025 113.168 315.577 112.81 317.128C111.378 323.812 110.304 330.496 111.975 337.179C112.094 337.896 112.094 338.612 111.975 339.328C111.258 343.386 110.304 347.324 109.587 351.382C107.081 364.511 104.575 377.64 102.307 390.769C101.233 397.214 100.397 403.778 99.8005 410.343C98.965 419.294 98.607 428.246 98.7263 437.317C98.8457 442.807 99.0844 448.416 99.4424 453.907C99.6811 456.891 100.397 459.874 100.636 462.739C101.471 471.332 103.142 479.806 103.858 488.519C104.336 494.248 104.575 499.977 103.62 505.706C102.188 513.583 101.829 521.461 102.068 529.457C102.188 531.128 101.949 532.68 101.352 534.351C98.8457 541.393 97.4134 548.793 96.6973 556.073C94.0715 583.882 94.7877 611.692 96.6973 639.859C96.6973 639.859 97.5328 661.701 97.5328 666.713C97.5328 671.726 95.9812 678.768 93.7135 683.542C87.5071 697.148 76.4073 709.322 66.859 721.019C61.8462 727.106 61.1301 726.151 58.743 728.061C56.4753 729.851 56.1173 730.806 54.9237 732.835C53.7302 734.745 54.4463 736.177 54.4463 736.177C53.0141 740.115 55.7592 740.593 55.7592 740.593C57.5495 743.815 60.414 742.741 60.414 742.741C64.472 746.799 66.9784 743.577 66.9784 743.577C71.6332 748.948 76.4073 747.754 82.0169 742.98C87.5071 738.206 87.0297 740.235 90.0135 739.041C102.904 734.029 103.5 721.258 114.72 714.932C127.013 708.01 130.116 700.49 128.684 695.716C127.252 690.942 126.297 684.02 126.297 684.02C127.61 683.184 128.087 680.32 127.371 677.574C124.984 668.742 125.939 667.668 127.729 649.288C130.355 632.578 132.742 613.721 140.619 599.279C143.484 594.147 145.274 588.179 145.99 582.092C146.468 577.557 146.468 573.021 146.348 568.486C146.229 562.876 145.513 557.267 144.797 551.776C144.2 547.599 143.603 543.541 143.006 539.483C142.887 538.528 143.006 537.812 143.603 536.977C145.155 534.709 146.109 532.202 146.826 529.577C148.258 524.444 149.093 519.193 149.093 513.822C149.093 510.958 149.213 508.093 149.451 505.229C149.69 503.08 149.69 500.813 150.764 498.784C155.419 489.832 159.119 480.523 161.983 470.855C164.729 461.545 166.877 452.116 169.025 442.568C170.099 437.913 171.174 433.139 172.248 428.485C173.322 433.139 174.396 437.913 175.47 442.568C177.619 451.997 179.648 461.545 182.512 470.855C185.377 480.523 189.077 489.832 193.731 498.784C194.806 500.813 194.925 503.08 195.044 505.229C195.283 508.093 195.402 510.958 195.402 513.822C195.402 519.193 196.238 524.444 197.67 529.577C198.386 532.202 199.341 534.709 200.893 536.977C201.489 537.812 201.609 538.528 201.489 539.483C200.893 543.541 200.296 547.718 199.699 551.776C198.864 557.267 198.267 562.876 198.147 568.486C198.028 573.021 198.028 577.557 198.506 582.092C199.222 588.179 201.012 594.147 203.876 599.279C211.754 613.721 214.021 632.578 216.767 649.288C218.557 667.549 219.392 668.623 217.125 677.574C216.408 680.32 216.886 683.065 218.199 684.02C218.199 684.02 217.363 690.942 215.812 695.716C214.379 700.49 217.483 708.01 229.776 714.932C240.876 721.258 241.473 733.909 254.482 739.041C257.466 740.235 256.989 738.206 262.479 742.98C267.969 747.754 272.862 748.948 277.517 743.577C277.517 743.577 279.904 746.799 284.082 742.741C284.082 742.741 286.946 743.815 288.736 740.593C288.736 740.593 291.482 740.115 290.049 736.177C290.049 736.177 290.765 734.745 289.572 732.835C288.259 730.806 288.02 729.851 285.753 728.061C283.366 726.151 282.649 727.106 277.637 721.019C268.088 709.203 256.988 697.029 250.543 683.781C248.276 679.126 246.724 671.965 246.724 666.952C246.724 661.939 247.56 640.098 247.56 640.098C249.469 611.93 250.185 584.24 247.56 556.312C246.843 549.031 245.531 541.631 242.905 534.589C242.308 533.038 242.069 531.367 242.189 529.696C242.427 521.699 242.069 513.822 240.637 505.945C239.682 500.216 239.921 494.487 240.398 488.758C241.115 480.164 242.786 471.571 243.621 462.978C243.979 459.994 244.695 457.01 244.815 454.145C245.173 448.655 245.411 443.046 245.531 437.555C245.769 428.604 245.411 419.533 244.456 410.582C243.86 404.017 243.024 397.453 241.95 391.008C239.682 377.879 237.176 364.75 234.67 351.621C233.953 347.563 232.999 343.625 232.282 339.567C232.163 338.85 232.163 338.134 232.282 337.418C233.953 330.615 232.76 323.931 231.447 317.367C231.089 315.815 230.731 314.264 230.134 312.712C229.537 311.16 229.776 309.728 230.134 308.296C230.492 306.267 231.089 304.238 231.208 302.209C231.447 296.957 231.566 291.825 231.686 286.574C231.805 282.396 231.566 278.1 231.805 273.922C232.044 270.222 232.64 266.522 232.999 262.822C233.715 256.258 234.431 249.574 235.028 243.01C235.028 242.652 235.028 242.174 235.147 241.816C235.863 240.026 236.547 223.447 237.263 221.657C236.806 224.559 238.131 237.758 238.25 238.355C239.324 243.129 240.637 247.784 242.427 252.439C243.979 256.735 245.769 261.032 248.037 265.09C248.873 266.522 248.992 267.835 248.992 269.387C248.873 271.893 248.992 274.519 248.992 277.025C249.111 279.174 249.35 281.203 249.35 283.351C249.111 291.587 250.543 299.464 252.93 307.341C256.63 319.754 260.45 332.167 264.269 344.579C265.94 349.831 267.969 354.963 269.879 360.095C270.356 361.528 270.475 362.721 269.998 364.273C268.685 368.331 268.327 372.508 268.208 376.805C267.969 381.221 268.327 385.637 268.685 390.053C268.804 391.127 268.685 392.321 268.804 393.395C269.043 396.737 268.924 400.198 269.64 403.54C271.072 409.269 270.475 414.998 270.356 420.727C270.356 423.114 270.237 425.501 270.237 427.888C270.237 428.723 270.595 429.559 270.714 430.514C271.072 430.514 271.311 430.514 271.43 430.633C273.459 430.872 273.459 430.991 274.175 429.081C274.772 427.768 275.25 426.456 275.966 424.785C276.324 427.41 276.682 429.797 277.04 432.065C277.159 432.543 277.159 433.02 277.398 433.497C277.756 434.333 278.711 435.049 279.427 434.93C280.382 434.81 281.098 434.214 281.337 433.139C281.575 431.468 281.814 429.797 281.814 428.007C281.933 423.114 281.933 418.34 281.933 413.565C281.933 413.088 282.053 412.73 282.172 412.253C282.53 414.998 282.888 417.743 283.366 420.488C284.201 425.381 284.798 430.275 286.349 434.93C286.588 435.526 286.827 436.123 287.304 436.601C287.901 437.317 288.736 437.555 289.691 436.959C290.049 436.72 290.407 436.72 290.765 436.481C291.362 432.065 291.362 427.768 291.124 423.352C291.004 419.772 290.765 416.191 290.527 412.491C290.407 411.059 290.407 409.627 290.288 408.195C290.288 407.956 290.288 407.598 290.646 407.24C290.765 407.598 291.004 407.956 291.124 408.314C292.556 414.043 293.869 419.772 295.301 425.501C296.136 428.604 297.33 431.588 299.717 433.855C300.075 434.214 300.433 434.691 301.149 434.452C301.865 434.214 302.343 433.736 302.343 433.02C302.343 431.468 302.343 429.917 302.343 428.365C302.104 424.427 301.746 420.488 301.388 416.549C300.91 412.014 300.314 407.478 299.836 402.943C299.717 402.346 299.717 401.75 299.717 401.153C299.836 401.153 299.956 401.033 300.075 401.033C300.433 401.511 300.791 401.988 301.149 402.466C302.343 403.779 303.656 404.972 304.849 406.165C306.997 408.075 309.504 408.075 312.13 407.478C313.443 406.882 313.92 405.807 313.084 404.256Z" fill="url(#paint0_linear_480_5384)"/>
<path fill-rule="evenodd" clip-rule="evenodd" d="M196.835 93.46H147.065C147.9 96.2051 148.855 97.518 149.571 98.3534C149.571 98.3534 155.897 106.111 157.09 107.424C162.581 113.989 164.729 113.273 172.009 113.273C179.171 113.273 181.438 113.989 186.929 107.424C188.003 106.111 194.448 98.3534 194.448 98.3534C195.045 97.518 195.999 96.0857 196.835 93.46Z" fill="#F9C5AD"/>
<path fill-rule="evenodd" clip-rule="evenodd" d="M207.099 61.7122C206.382 61.5929 205.428 62.1896 204.712 62.9058C204.831 62.667 204.95 62.309 205.07 62.0703C205.666 59.9219 206.502 57.7736 206.741 55.5059C209.486 32.5901 193.134 16.1194 171.889 16C150.645 16 134.413 32.5901 137.038 55.5059C137.277 57.7736 138.112 59.9219 138.709 62.0703C138.829 62.309 138.948 62.667 139.067 62.9058C138.232 62.1896 137.277 61.5929 136.68 61.7122C133.696 62.309 134.054 67.6799 134.174 69.9476C134.174 72.454 134.532 75.0798 136.083 76.9894C136.8 77.8249 137.754 78.6604 138.351 79.7345C138.829 80.6894 139.067 81.7635 139.783 82.7184C140.858 84.1506 142.767 84.1506 142.767 84.1506C142.887 84.8667 143.006 86.7764 143.245 87.4925C144.2 90.357 145.393 91.9085 146.348 92.6247C146.348 92.6247 153.628 100.144 154.941 101.457C161.267 107.783 163.773 107.186 172.128 107.186C180.363 107.186 182.989 107.783 189.315 101.457C190.628 100.144 197.908 92.6247 197.908 92.6247C198.744 91.9085 199.937 90.357 201.012 87.4925C201.25 86.7764 201.37 84.9861 201.489 84.1506C201.489 84.1506 203.399 84.1506 204.473 82.7184C205.07 81.7635 205.308 80.8087 205.905 79.7345C206.382 78.6604 207.337 77.8249 208.173 76.9894C209.724 75.0798 210.082 72.454 210.082 69.9476C209.724 67.5605 210.082 62.1896 207.099 61.7122Z" fill="#FFE1C9"/>
<path fill-rule="evenodd" clip-rule="evenodd" d="M151.122 137.859C159.954 137.501 164.49 145.856 164.49 145.856C164.49 145.856 158.761 146.93 153.867 142.395C148.616 137.621 141.335 145.378 116.749 134.637C116.868 134.637 132.384 138.575 151.122 137.859Z" fill="#F9C5AD"/>
<path fill-rule="evenodd" clip-rule="evenodd" d="M132.905 232.268C122.163 229.046 118.702 225.226 116.792 222.839C113.45 218.781 109.034 212.694 108.915 203.385C108.199 201.714 104.499 195.149 104.499 195.149C104.499 195.149 105.812 202.311 106.17 211.381C107.244 235.729 107.345 225.031 107.345 228.015L109.273 242.294L110.467 253.036C111.541 250.768 110.586 232.03 113.092 230.239C115.718 228.449 115.241 232.626 120.373 234.536C133.382 235.729 137.798 236.684 147.347 233.82C147.585 233.939 141.856 233.581 132.905 232.268Z" fill="#F9C5AD"/>
<path fill-rule="evenodd" clip-rule="evenodd" d="M209.724 232.268C220.466 229.046 223.927 225.226 225.836 222.839C229.178 218.781 233.594 212.694 233.714 203.385C234.43 201.714 238.13 195.149 238.13 195.149C238.13 195.149 237.959 202.23 237.601 211.301C236.526 235.649 235.992 230.836 235.992 233.82L235.19 241.697L233.996 253.632C232.922 251.365 232.043 232.03 229.536 230.239C226.911 228.449 227.388 232.626 222.256 234.536C209.246 235.729 204.83 236.684 195.282 233.82C195.043 233.939 200.772 233.581 209.724 232.268Z" fill="#F9C5AD"/>
<path fill-rule="evenodd" clip-rule="evenodd" d="M192.657 137.859C183.825 137.501 179.289 145.856 179.289 145.856C179.289 145.856 185.018 146.93 189.912 142.395C195.163 137.621 202.444 145.378 227.031 134.637C227.031 134.637 211.395 138.575 192.657 137.859Z" fill="#F9C5AD"/>
<ellipse cx="184.854" cy="176.572" rx="7.30436" ry="7.30439" fill="white"/>
<ellipse cx="203.374" cy="207.727" rx="7.30436" ry="7.30439" fill="white"/>
<path fill-rule="evenodd" clip-rule="evenodd" d="M200.049 207.645C199.973 208.849 200.53 211.256 203.359 211.256L203.359 211.256C206.182 211.253 206.738 208.848 206.663 207.645C206.663 206.886 205.914 204.603 205.268 202.633C204.992 201.792 204.735 201.007 204.563 200.422L203.352 200.422L203.352 200.422L202.149 200.422C201.976 201.007 201.719 201.792 201.443 202.633C200.797 204.603 200.049 206.886 200.049 207.645Z" fill="#282A2E"/>
<path fill-rule="evenodd" clip-rule="evenodd" d="M203.377 210.353C201.334 210.353 200.932 208.614 200.986 207.745C200.986 207.204 201.512 205.594 201.974 204.184L204.774 204.184C205.237 205.594 205.762 207.204 205.762 207.745C205.817 208.613 205.415 210.35 203.377 210.353L203.377 210.353Z" fill="#D62F2F"/>
<path d="M202.305 200.123L204.412 200.123L204.186 199.37L202.531 199.37L202.305 200.123Z" fill="#282A2E"/>
<path d="M202.757 199.069L203.961 199.069L203.832 198.316L202.886 198.316L202.757 199.069Z" fill="#282A2E"/>
<path d="M204.697 207.253L204.663 209.158L204.433 209.154L204.464 207.451L203.543 207.434L203.547 207.232L204.697 207.253Z" fill="white"/>
<path d="M202.948 207.222L202.914 209.127L202.684 209.123L202.715 207.42L201.794 207.403L201.798 207.201L202.948 207.222Z" fill="white"/>
<ellipse cx="221.467" cy="176.572" rx="7.30436" ry="7.30439" fill="white"/>
<path fill-rule="evenodd" clip-rule="evenodd" d="M219.739 173.843C220.744 173.176 223.107 172.455 224.522 174.905L224.522 174.905C225.931 177.352 224.126 179.036 223.047 179.573C222.389 179.952 220.038 180.445 218.008 180.871C217.142 181.053 216.334 181.222 215.742 181.365L215.137 180.317L215.137 180.317L214.534 179.274C214.955 178.832 215.505 178.217 216.096 177.558C217.479 176.012 219.082 174.223 219.739 173.843Z" fill="#282A2E"/>
<path fill-rule="evenodd" clip-rule="evenodd" d="M223.729 175.338C224.75 177.107 223.445 178.325 222.665 178.713C222.197 178.983 220.539 179.333 219.087 179.638L217.686 177.212C218.676 176.106 219.808 174.846 220.276 174.575C221.002 174.094 222.707 173.573 223.728 175.338L223.729 175.338Z" fill="black"/>
<path d="M215.403 181.381L214.35 179.556L213.811 180.128L214.638 181.561L215.403 181.381Z" fill="#282A2E"/>
<path d="M214.264 181.515L213.662 180.473L213.075 180.961L213.548 181.78L214.264 181.515Z" fill="#282A2E"/>
<path d="M222.854 176.856L221.03 177.17L220.902 176.946L222.92 176.631L223.003 176.775L222.854 176.856ZM221.606 178.179L222.803 176.766L222.948 176.679L223.03 176.823L221.735 178.404L221.606 178.179ZM222.204 177.8L222.024 177.903L221.492 176.972L221.672 176.869L222.204 177.8Z" fill="white"/>
<path d="M220.133 175.66L221.817 174.698L221.921 174.88L220.4 175.749L220.817 176.479L220.654 176.572L220.133 175.66Z" fill="white"/>
<path fill-rule="evenodd" clip-rule="evenodd" d="M183.664 179.573C182.584 179.036 180.777 177.35 182.192 174.9L182.192 174.9C183.607 172.456 185.968 173.177 186.972 173.844C187.629 174.223 189.232 176.013 190.615 177.558C191.206 178.217 191.756 178.832 192.177 179.274L191.572 180.322L191.571 180.322L190.969 181.365C190.376 181.222 189.568 181.053 188.702 180.871C186.672 180.445 184.322 179.952 183.664 179.573Z" fill="#282A2E"/>
<path fill-rule="evenodd" clip-rule="evenodd" d="M182.965 175.366C181.943 177.136 183.248 178.353 184.028 178.741C184.497 179.011 186.155 179.361 187.606 179.666L189.006 177.242C188.017 176.137 186.885 174.876 186.416 174.606C185.691 174.124 183.987 173.604 182.965 175.367L182.965 175.366Z" fill="white"/>
<path d="M192.359 179.56L191.305 181.385L192.07 181.565L192.897 180.132L192.359 179.56Z" fill="#282A2E"/>
<path d="M193.045 180.479L192.443 181.521L193.159 181.786L193.632 180.967L193.045 180.479Z" fill="#282A2E"/>
<path d="M183.316 177.468L183.635 176.916C183.707 176.791 183.787 176.696 183.875 176.632C183.963 176.567 184.058 176.534 184.159 176.532C184.259 176.529 184.364 176.558 184.472 176.621C184.549 176.665 184.609 176.721 184.655 176.789C184.7 176.856 184.728 176.931 184.738 177.014C184.749 177.097 184.742 177.184 184.717 177.277L184.705 177.353L184.406 177.871L184.224 177.77L184.451 177.378C184.496 177.299 184.521 177.225 184.524 177.156C184.526 177.087 184.511 177.026 184.479 176.972C184.447 176.918 184.403 176.874 184.345 176.841C184.281 176.804 184.218 176.784 184.155 176.782C184.093 176.779 184.033 176.797 183.975 176.837C183.918 176.875 183.864 176.936 183.816 177.021L183.624 177.352L185.111 178.21L184.983 178.431L183.316 177.468ZM185.546 177.456L184.556 177.425L184.688 177.195L185.669 177.213L185.682 177.22L185.546 177.456Z" fill="#282A2E"/>
<path d="M184.816 175.211L186.017 176.641L185.887 176.867L184.586 175.268L184.67 175.123L184.816 175.211ZM186.603 175.626L184.763 175.302L184.614 175.22L184.698 175.075L186.734 175.399L186.603 175.626ZM185.969 175.298L186.15 175.403L185.609 176.34L185.428 176.235L185.969 175.298Z" fill="#282A2E"/>
<path d="M214.74 186.944C214.74 193.231 209.643 198.328 203.356 198.328C197.068 198.328 191.971 193.231 191.971 186.944C191.971 180.656 197.068 175.559 203.356 175.559C209.643 175.559 214.74 180.656 214.74 186.944Z" fill="#F5F6FA" stroke="#C0C5D1" stroke-width="0.46152"/>
<path d="M203.355 196.117C208.421 196.117 212.528 192.01 212.528 186.944C212.528 181.879 208.421 177.772 203.355 177.772C198.29 177.772 194.183 181.879 194.183 186.944C194.183 192.01 198.29 196.117 203.355 196.117Z" fill="#C0C5D1"/>
<path d="M203.355 190.631C205.392 190.631 207.042 188.98 207.042 186.944C207.042 184.907 205.392 183.256 203.355 183.256C201.318 183.256 199.667 184.907 199.667 186.944C199.667 188.98 201.318 190.631 203.355 190.631Z" fill="white"/>
</g>
<defs>
<linearGradient id="paint0_linear_480_5384" x1="172" y1="91.5508" x2="172" y2="747.112" gradientUnits="userSpaceOnUse">
<stop stop-color="#FFE1C9"/>
<stop offset="0.254556" stop-color="#FFE5D0"/>
<stop offset="0.379121" stop-color="#FFE1C9" stop-opacity="0"/>
</linearGradient>
<clipPath id="clip0_480_5384">
<rect width="343" height="245" fill="white"/>
</clipPath>
</defs>
</svg>
