<svg width="49" height="48" viewBox="0 0 49 48" fill="none" xmlns="http://www.w3.org/2000/svg">
<rect x="1" y="0.5" width="47" height="47" rx="23.5" fill="white"/>
<path d="M24.007 30H21.271L18.193 25.806H16.411V30H13.981V18.12H18.445C19.693 18.12 20.719 18.474 21.523 19.182C22.327 19.89 22.729 20.814 22.729 21.954C22.729 22.698 22.543 23.37 22.171 23.97C21.811 24.558 21.301 25.014 20.641 25.338L24.007 30ZM16.411 20.262V23.664H18.445C19.009 23.664 19.447 23.508 19.759 23.196C20.083 22.884 20.245 22.47 20.245 21.954C20.245 21.45 20.077 21.042 19.741 20.73C19.417 20.418 18.985 20.262 18.445 20.262H16.411ZM33.5226 30L32.8566 28.452H27.9966L27.3306 30H24.7206L30.0306 17.904H30.8406L36.1326 30H33.5226ZM32.0106 26.454L30.4266 22.44L28.8426 26.454H32.0106Z" fill="black"/>
<rect x="1" y="0.5" width="47" height="47" rx="23.5" stroke="#DFE9F5"/>
</svg>
