<svg width="81" height="81" viewBox="0 0 81 81" fill="none" xmlns="http://www.w3.org/2000/svg">
<circle cx="40.5" cy="40.376" r="40" fill="#F5F6FA"/>
<path d="M80.5 40.376C80.5 62.4674 62.5914 80.376 40.5 80.376C18.4086 80.376 0.5 62.4674 0.5 40.376C0.5 18.2846 18.4086 0.375977 40.5 0.375977C62.5914 0.375977 80.5 18.2846 80.5 40.376ZM7.09102 40.376C7.09102 58.8272 22.0487 73.785 40.5 73.785C58.9513 73.785 73.909 58.8272 73.909 40.376C73.909 21.9247 58.9513 6.967 40.5 6.967C22.0487 6.967 7.09102 21.9247 7.09102 40.376Z" fill="#DEF5EE"/>
<path d="M80.5 40.376C80.5 62.4674 62.5914 80.376 40.5 80.376C18.4086 80.376 0.5 62.4674 0.5 40.376C0.5 18.2846 18.4086 0.375977 40.5 0.375977C62.5914 0.375977 80.5 18.2846 80.5 40.376ZM7.09102 40.376C7.09102 58.8272 22.0487 73.785 40.5 73.785C58.9513 73.785 73.909 58.8272 73.909 40.376C73.909 21.9247 58.9513 6.967 40.5 6.967C22.0487 6.967 7.09102 21.9247 7.09102 40.376Z" fill="#07A878"/>
<circle cx="40.5005" cy="40.3759" r="31.9096" fill="white"/>
<circle cx="40.5" cy="39.709" r="26" fill="#07A878"/>
<path d="M31.3755 40.9756C31.3755 40.9756 37.9343 47.9751 38.552 47.9751C39.1697 47.9751 51.6255 30.7764 51.6255 30.7764" stroke="white" stroke-width="3" stroke-linecap="round"/>
</svg>
