<svg width="81" height="81" viewBox="0 0 81 81" fill="none" xmlns="http://www.w3.org/2000/svg">
<circle cx="40.5" cy="40.376" r="40" fill="#F5F6FA"/>
<path d="M80.5 40.376C80.5 62.4674 62.5914 80.376 40.5 80.376C18.4086 80.376 0.5 62.4674 0.5 40.376C0.5 18.2846 18.4086 0.375977 40.5 0.375977C62.5914 0.375977 80.5 18.2846 80.5 40.376ZM7.09102 40.376C7.09102 58.8272 22.0487 73.785 40.5 73.785C58.9513 73.785 73.909 58.8272 73.909 40.376C73.909 21.9247 58.9513 6.967 40.5 6.967C22.0487 6.967 7.09102 21.9247 7.09102 40.376Z" fill="#DEF5EE"/>
<path d="M80.5 40.376C80.5 62.4674 62.5914 80.376 40.5 80.376C18.4086 80.376 0.5 62.4674 0.5 40.376C0.5 18.2846 18.4086 0.375977 40.5 0.375977C62.5914 0.375977 80.5 18.2846 80.5 40.376ZM7.09102 40.376C7.09102 58.8272 22.0487 73.785 40.5 73.785C58.9513 73.785 73.909 58.8272 73.909 40.376C73.909 21.9247 58.9513 6.967 40.5 6.967C22.0487 6.967 7.09102 21.9247 7.09102 40.376Z" fill="#07A878"/>
<circle cx="40.5005" cy="40.3759" r="31.9096" fill="white"/>
<circle cx="40.5" cy="40.376" r="26" stroke="#3A3D42" stroke-width="2"/>
<path d="M39.4852 28.0053L31.2393 36.2512C30.6735 36.8172 30.6735 37.7333 31.2393 38.2723C31.8052 38.8381 32.7215 38.8381 33.2604 38.2723L39.0811 32.4786V51.746C39.0811 52.5274 39.7278 53.1742 40.5092 53.1742C41.2907 53.1742 41.9375 52.5274 41.9375 51.746V32.4786L47.7311 38.2723C48.2971 38.8381 49.2132 38.8381 49.7522 38.2723C50.0217 38.0028 50.1833 37.6256 50.1833 37.2483C50.1833 36.871 50.0486 36.5207 49.7522 36.2243L41.5332 28.0053C41.2638 27.7358 40.8864 27.5742 40.5092 27.5742C40.1319 27.5742 39.7547 27.7358 39.4852 28.0053Z" fill="#3A3D42"/>
</svg>
