<svg width="283" height="250" viewBox="0 0 283 250" fill="none" xmlns="http://www.w3.org/2000/svg">
<defs>
<radialGradient id="paint0_radial_5592_8904" cx="0" cy="0" r="1" gradientUnits="userSpaceOnUse" gradientTransform="translate(141.934 140.11) rotate(90) scale(65.9341)">
<stop stop-color="#42C432"/>
<stop offset="1" stop-color="#E5FDE1"/>
</radialGradient>
</defs>
<path d="M207.868 140.11C207.868 176.524 178.348 206.044 141.934 206.044C105.52 206.044 76 176.524 76 140.11C76 103.695 105.52 74.1758 141.934 74.1758C178.348 74.1758 207.868 103.695 207.868 140.11Z" fill="url(#paint0_radial_5592_8904)"/>
<path d="M194.872 140.11C194.872 169.241 171.257 192.857 142.125 192.857C112.994 192.857 89.378 169.241 89.378 140.11C89.378 110.978 112.994 87.3625 142.125 87.3625C171.257 87.3625 194.872 110.978 194.872 140.11Z" fill="#42C532"/>
<path fill-rule="evenodd" clip-rule="evenodd" d="M161.828 126.77C163.391 128.332 163.391 130.865 161.828 132.427L138.9 155.355C138.15 156.105 137.133 156.527 136.072 156.527C135.011 156.527 133.994 156.105 133.244 155.355L122.172 144.283C120.61 142.721 120.61 140.188 122.172 138.626C123.734 137.064 126.266 137.064 127.828 138.626L136.072 146.87L148.006 134.936L156.172 126.77C157.734 125.208 160.266 125.208 161.828 126.77Z" fill="white"/>
<path d="M148.369 4.57875C148.369 7.10753 146.319 9.15751 143.79 9.15751C141.261 9.15751 139.21 7.10753 139.21 4.57875C139.21 2.04998 141.261 0 143.79 0C146.319 0 148.369 2.04998 148.369 4.57875Z" fill="#42C532"/>
<path d="M14.6537 113.553C14.6537 117.599 11.3734 120.879 7.32686 120.879C3.28035 120.879 0 117.599 0 113.553C0 109.507 3.28035 106.227 7.32686 106.227C11.3734 106.227 14.6537 109.507 14.6537 113.553Z" fill="#B4F8AC"/>
<path d="M283 236.264C283 240.31 279.72 243.59 275.673 243.59C271.627 243.59 268.346 240.31 268.346 236.264C268.346 232.218 271.627 228.938 275.673 228.938C279.72 228.938 283 232.218 283 236.264Z" fill="#42C532"/>
<path d="M155.696 43.4982C155.696 45.7741 153.851 47.619 151.574 47.619C149.298 47.619 147.453 45.7741 147.453 43.4982C147.453 41.2223 149.298 39.3773 151.574 39.3773C153.851 39.3773 155.696 41.2223 155.696 43.4982Z" fill="#B4F8AC"/>
<path d="M45.7929 64.5604C45.7929 66.8363 43.9477 68.6813 41.6715 68.6813C39.3954 68.6813 37.5502 66.8363 37.5502 64.5604C37.5502 62.2845 39.3954 60.4396 41.6715 60.4396C43.9477 60.4396 45.7929 62.2845 45.7929 64.5604Z" fill="#42C532"/>
<path d="M24.7282 245.879C24.7282 248.155 22.883 250 20.6068 250C18.3306 250 16.4854 248.155 16.4854 245.879C16.4854 243.603 18.3306 241.758 20.6068 241.758C22.883 241.758 24.7282 243.603 24.7282 245.879Z" fill="#42C532"/>
<path d="M253.693 213.828C253.693 216.104 251.847 217.949 249.571 217.949C247.295 217.949 245.45 216.104 245.45 213.828C245.45 211.552 247.295 209.707 249.571 209.707C251.847 209.707 253.693 211.552 253.693 213.828Z" fill="#42C532"/>
<path d="M222.553 88.8278C222.553 89.8394 221.733 90.6593 220.722 90.6593C219.71 90.6593 218.89 89.8394 218.89 88.8278C218.89 87.8163 219.71 86.9963 220.722 86.9963C221.733 86.9963 222.553 87.8163 222.553 88.8278Z" fill="#B4F8AC"/>
<path d="M268.346 115.385C268.346 116.396 267.526 117.216 266.515 117.216C265.503 117.216 264.683 116.396 264.683 115.385C264.683 114.373 265.503 113.553 266.515 113.553C267.526 113.553 268.346 114.373 268.346 115.385Z" fill="#42C532"/>
<path d="M172.181 62.2711C172.181 63.2826 171.361 64.1026 170.35 64.1026C169.338 64.1026 168.518 63.2826 168.518 62.2711C168.518 61.2596 169.338 60.4396 170.35 60.4396C171.361 60.4396 172.181 61.2596 172.181 62.2711Z" fill="#42C532"/>
<path d="M238.123 66.8498C238.123 68.3671 236.893 69.5971 235.375 69.5971C233.858 69.5971 232.628 68.3671 232.628 66.8498C232.628 65.3326 233.858 64.1026 235.375 64.1026C236.893 64.1026 238.123 65.3326 238.123 66.8498Z" fill="#42C532"/>
<path d="M248.197 39.3773C248.197 40.8946 246.967 42.1245 245.45 42.1245C243.932 42.1245 242.702 40.8946 242.702 39.3773C242.702 37.86 243.932 36.63 245.45 36.63C246.967 36.63 248.197 37.86 248.197 39.3773Z" fill="#42C532"/>
<path d="M283 72.3443C283 73.8616 281.77 75.0916 280.252 75.0916C278.735 75.0916 277.505 73.8616 277.505 72.3443C277.505 70.8271 278.735 69.5971 280.252 69.5971C281.77 69.5971 283 70.8271 283 72.3443Z" fill="#42C532"/>
<path d="M25.644 144.689C25.644 146.206 24.4139 147.436 22.8964 147.436C21.379 147.436 20.1489 146.206 20.1489 144.689C20.1489 143.171 21.379 141.941 22.8964 141.941C24.4139 141.941 25.644 143.171 25.644 144.689Z" fill="#42C532"/>
<path d="M61.3625 202.381C61.3625 203.898 60.1323 205.128 58.6149 205.128C57.0974 205.128 55.8673 203.898 55.8673 202.381C55.8673 200.864 57.0974 199.634 58.6149 199.634C60.1323 199.634 61.3625 200.864 61.3625 202.381Z" fill="#42C532"/>
<path d="M231.712 197.802C231.712 199.319 230.482 200.549 228.964 200.549C227.447 200.549 226.217 199.319 226.217 197.802C226.217 196.285 227.447 195.055 228.964 195.055C230.482 195.055 231.712 196.285 231.712 197.802Z" fill="#42C532"/>
<path d="M261.935 181.319C261.935 182.836 260.705 184.066 259.188 184.066C257.67 184.066 256.44 182.836 256.44 181.319C256.44 179.801 257.67 178.571 259.188 178.571C260.705 178.571 261.935 179.801 261.935 181.319Z" fill="#B4F8AC"/>
<path d="M256.44 147.894C256.44 149.664 255.005 151.099 253.235 151.099C251.464 151.099 250.029 149.664 250.029 147.894C250.029 146.124 251.464 144.689 253.235 144.689C255.005 144.689 256.44 146.124 256.44 147.894Z" fill="#42C532"/>
<path d="M76.0162 50.8242C76.0162 52.5943 74.581 54.0293 72.8107 54.0293C71.0403 54.0293 69.6052 52.5943 69.6052 50.8242C69.6052 49.054 71.0403 47.619 72.8107 47.619C74.581 47.619 76.0162 49.054 76.0162 50.8242Z" fill="#42C532"/>
<path d="M108.987 63.6447C108.987 65.4148 107.552 66.8498 105.782 66.8498C104.011 66.8498 102.576 65.4148 102.576 63.6447C102.576 61.8745 104.011 60.4396 105.782 60.4396C107.552 60.4396 108.987 61.8745 108.987 63.6447Z" fill="#42C532"/>
<path d="M213.395 233.974C213.395 235.239 212.37 236.264 211.105 236.264C209.841 236.264 208.816 235.239 208.816 233.974C208.816 232.71 209.841 231.685 211.105 231.685C212.37 231.685 213.395 232.71 213.395 233.974Z" fill="#42C532"/>
<path d="M14.6537 20.6044C14.6537 21.8688 13.6286 22.8938 12.3641 22.8938C11.0995 22.8938 10.0744 21.8688 10.0744 20.6044C10.0744 19.34 11.0995 18.315 12.3641 18.315C13.6286 18.315 14.6537 19.34 14.6537 20.6044Z" fill="#42C532"/>
<path d="M105.324 245.421C105.324 246.939 104.093 248.169 102.576 248.169C101.059 248.169 99.8285 246.939 99.8285 245.421C99.8285 243.904 101.059 242.674 102.576 242.674C104.093 242.674 105.324 243.904 105.324 245.421Z" fill="#B4F8AC"/>
<path d="M172.181 20.1465C172.181 21.6638 170.951 22.8938 169.434 22.8938C167.916 22.8938 166.686 21.6638 166.686 20.1465C166.686 18.6293 167.916 17.3993 169.434 17.3993C170.951 17.3993 172.181 18.6293 172.181 20.1465Z" fill="#42C532"/>
<path d="M31.1392 185.897C31.1392 186.909 30.3191 187.729 29.3074 187.729C28.2958 187.729 27.4757 186.909 27.4757 185.897C27.4757 184.886 28.2958 184.066 29.3074 184.066C30.3191 184.066 31.1392 184.886 31.1392 185.897Z" fill="#42C532"/>

</svg>
