<svg width="97" height="103" viewBox="0 0 97 103" fill="none" xmlns="http://www.w3.org/2000/svg">
<defs>
<linearGradient id="paint0_linear_22190_263913" x1="16.0012" y1="51.8572" x2="96.5017" y2="51.8572" gradientUnits="userSpaceOnUse">
<stop stop-color="#E9F3FC"/>
<stop offset="1" stop-color="#CADCF0"/>
</linearGradient>
<linearGradient id="paint1_linear_22190_263913" x1="16.3161" y1="81.5286" x2="96.8166" y2="81.5286" gradientUnits="userSpaceOnUse">
<stop stop-color="#CADCF0"/>
<stop offset="1" stop-color="#A4BBDB"/>
</linearGradient>
<linearGradient id="paint2_linear_22190_263913" x1="23.1609" y1="35.3993" x2="40.7076" y2="35.3993" gradientUnits="userSpaceOnUse">
<stop stop-color="#CADCF0"/>
<stop offset="1" stop-color="#A4BBDB"/>
</linearGradient>
</defs>
<path fill-rule="evenodd" clip-rule="evenodd" d="M23.2183 3.09375C23.2183 2.53681 23.4382 2.005 23.8318 1.61347C24.2233 1.21984 24.7572 1 25.3121 1H72.5345L96.4996 27.5739V60.9755C96.4996 60.9755 96.575 88.5648 88.738 101.737C88.357 102.342 87.6912 102.708 86.9751 102.708C78.9623 102.714 31.3902 102.714 18.0907 102.714C17.3579 102.714 16.6775 102.329 16.2985 101.699C15.9195 101.069 15.9007 100.286 16.2461 99.6386C22.7431 85.531 23.2183 60.9755 23.2183 60.9755V3.09375Z" fill="url(#paint0_linear_22190_263913)"/>
<path fill-rule="evenodd" clip-rule="evenodd" d="M96.8145 60.6602C96.8145 60.6602 96.8899 88.2495 89.053 101.421C88.6719 102.026 88.0061 102.393 87.29 102.393C79.2773 102.399 31.7052 102.399 18.4057 102.399C17.6729 102.399 16.9924 102.012 16.6134 101.382C16.2345 100.753 16.2156 99.9703 16.5611 99.3213L16.6427 99.1412C42.4252 100.353 79.8656 95.8373 84.7964 93.9068C90.0643 91.8445 96.7098 72.0543 96.8124 60.9198L96.8145 60.6602Z" fill="url(#paint1_linear_22190_263913)"/>
<path fill-rule="evenodd" clip-rule="evenodd" d="M96.8147 27.2167C90.458 24.7063 83.7287 24.6351 76.8215 25.7029C76.1808 25.8034 75.5296 25.6003 75.0585 25.1523C74.5874 24.7042 74.3529 24.0635 74.422 23.4186C75.18 15.6843 74.4157 8.11751 72.8496 0.642822C82.9792 8.16148 90.9773 17.0139 96.8147 27.2167Z" fill="#8DB3EB"/>
<path fill-rule="evenodd" clip-rule="evenodd" d="M23.1861 15.4685C27.4478 15.9992 31.5725 17.899 34.8428 21.1694C41.382 27.7085 42.4434 37.6631 38.0287 45.3115L40.6536 53.6356C40.7827 54.0452 40.6744 54.4915 40.3716 54.7943C40.2966 54.8676 40.2201 54.9441 40.1484 55.0174C39.8631 55.3011 39.444 55.4031 39.0615 55.282L30.6959 52.6443C28.3467 54.0006 25.7792 54.8405 23.1606 55.1624C23.1798 54.6349 23.1861 54.3448 23.1861 54.3448V15.4685Z" fill="url(#paint2_linear_22190_263913)"/>
<path fill-rule="evenodd" clip-rule="evenodd" d="M28.6799 50.6904C21.3678 54.9123 11.8499 53.8971 5.59765 47.6448C-1.86588 40.1812 -1.86588 28.0624 5.59765 20.5988C13.0612 13.1337 25.1801 13.1337 32.6452 20.5988C38.8959 26.8495 39.9111 36.3674 35.6908 43.6795L38.1994 51.6387C38.3237 52.0292 38.2185 52.4563 37.9301 52.7448C37.8583 52.8165 37.7866 52.8882 37.7165 52.9583C37.444 53.2309 37.0439 53.3281 36.6774 53.2133L28.6799 50.6904Z" fill="#EFF4F9"/>
<path fill-rule="evenodd" clip-rule="evenodd" d="M18.5378 21.0521L18.6019 40.1002C18.6041 40.9717 19.2891 41.7188 20.1312 41.7658C20.9733 41.8128 21.6529 41.1425 21.65 40.2695L21.5866 21.2229C21.5837 20.3499 20.8994 19.6042 20.0573 19.5572C19.2152 19.5103 18.5349 20.1792 18.5378 21.0521Z" fill="#8DB3EB"/>
<path d="M20.0941 48.2321C21.1768 48.2321 22.0544 47.3545 22.0544 46.2718C22.0544 45.1892 21.1768 44.3115 20.0941 44.3115C19.0115 44.3115 18.1338 45.1892 18.1338 46.2718C18.1338 47.3545 19.0115 48.2321 20.0941 48.2321Z" fill="#8DB3EB"/>

</svg>
